<svg width="18" height="19" viewBox="0 0 18 19" fill="none" xmlns="http://www.w3.org/2000/svg">
<path d="M0.253183 1.50198C-0.0843944 1.16441 -0.0843944 0.602564 0.253183 0.253183C0.602564 -0.0843944 1.1526 -0.0843944 1.50198 0.253183L8.99557 7.75936L16.5018 0.253183C16.8393 -0.0843944 17.4012 -0.0843944 17.738 0.253183C18.0873 0.602564 18.0873 1.16519 17.738 1.50198L10.2444 8.99636L17.738 16.5025C18.0873 16.8401 18.0873 17.402 17.738 17.7513C17.4004 18.0889 16.8385 18.0889 16.5018 17.7513L8.99557 10.2452L1.50198 17.7513C1.1526 18.0889 0.602564 18.0889 0.253183 17.7513C-0.0843944 17.402 -0.0843944 16.8393 0.253183 16.5025L7.74677 8.99636L0.253183 1.50198Z" fill="#022334"/>
</svg>
