<svg width="26" height="26" viewBox="0 0 26 26" fill="none" xmlns="http://www.w3.org/2000/svg">
<g clip-path="url(#clip0)">
<path d="M24.5648 4.59478e-08H1.43398C0.641907 0.000396774 -0.000198318 0.642898 4.59478e-08 1.43517V24.566C0.000396774 25.3581 0.642898 26.0002 1.43517 26H24.5648C25.3573 26.0002 25.9998 25.3579 26 24.5654C26 24.5652 26 24.565 26 24.5648V1.43398C25.9996 0.641907 25.3571 -0.000198318 24.5648 4.59478e-08Z" fill="#646E84"/>
<path d="M17.9512 26.0001V15.9454H21.3408L21.8486 12.0099H17.9512V9.50337C17.9512 8.36655 18.2668 7.59193 19.8969 7.59193H21.9629V4.08148C21.6035 4.03368 20.3702 3.92676 18.9353 3.92676C15.9392 3.92676 13.8887 5.75488 13.8887 9.11359V12.0099H10.5117V15.9454H13.8887V26.0001H17.9512Z" fill="white"/>
</g>
<defs>
<clipPath id="clip0">
<rect width="26" height="26" fill="white"/>
</clipPath>
</defs>
</svg>
