<svg width="41" height="36" viewBox="0 0 41 36" fill="none" xmlns="http://www.w3.org/2000/svg">
<path d="M13.7407 28.3112H0V0.0532227H17.146C18.3607 0.0532227 19.5357 0.132157 20.6309 0.305809C21.766 0.479462 22.941 0.795194 24.1159 1.25301C25.3107 1.7266 26.3662 2.32649 27.2424 3.05268C28.1385 3.79465 28.8554 4.78921 29.413 5.98899C29.9507 7.17298 30.2295 8.54642 30.2295 10.0619C30.2295 11.4038 29.9507 12.6509 29.3931 13.7244C28.8355 14.8295 28.0987 15.7293 27.1827 16.4239C26.3064 17.087 25.251 17.6553 24.0761 18.0973C22.9211 18.5235 21.7461 18.8393 20.611 19.0129C19.4958 19.1866 18.3209 19.2655 17.146 19.2655H13.7407V28.3112ZM2.01131 26.7168H11.7294V17.6711H17.146C18.2014 17.6711 19.237 17.5921 20.2526 17.4501C21.2284 17.308 22.2241 17.0396 23.2198 16.6607C24.1955 16.2976 25.0718 15.824 25.7887 15.2715C26.4857 14.7348 27.0831 14.0244 27.5212 13.1403C27.9792 12.2405 28.1983 11.2144 28.1983 10.0619C28.1983 8.73585 27.9593 7.53607 27.5013 6.52573C27.0432 5.53117 26.4658 4.72606 25.7688 4.14195C25.0519 3.54206 24.1955 3.05268 23.2198 2.6738C22.2041 2.27913 21.2084 2.01076 20.2526 1.86868C19.2569 1.7266 18.2213 1.64767 17.1261 1.64767H1.9914V26.7168H2.01131Z" fill="#323C3F"/>
<path d="M40.4056 35.6833H26.4657L20.5911 25.8325V35.6833H8.10498V7.2832H25.0319C26.2467 7.2832 27.4216 7.36214 28.5368 7.52C29.6719 7.67787 30.807 7.97782 31.962 8.43563C33.117 8.87765 34.1326 9.44597 34.969 10.1248C35.8253 10.8036 36.5024 11.7192 37.0401 12.8559C37.5778 13.9925 37.8367 15.287 37.8367 16.7552C37.8367 20.244 35.905 22.6436 32.0218 23.9539L40.4056 35.6833ZM20.8301 15.0502H20.5712V19.4073H20.8301C20.9097 19.4073 21.1089 19.4073 21.4673 19.4231C21.8058 19.4231 22.0448 19.4231 22.1842 19.4231C22.3037 19.4231 22.5228 19.4073 22.8414 19.3757C23.16 19.3442 23.3791 19.3126 23.5185 19.2652C23.6579 19.2179 23.857 19.1389 24.0761 19.0284C24.2951 18.9337 24.4743 18.8074 24.5739 18.6653C24.6735 18.5233 24.773 18.3338 24.8527 18.1128C24.9324 17.8918 24.9722 17.6392 24.9722 17.3551C24.9722 16.913 24.8925 16.5342 24.7133 16.2342C24.554 15.9343 24.3549 15.7133 24.1358 15.5554C23.9167 15.3975 23.618 15.287 23.1998 15.2081C22.7816 15.1291 22.463 15.0976 22.2041 15.0818C21.9452 15.066 21.5669 15.066 21.0491 15.066C20.9495 15.0502 20.8898 15.0502 20.8301 15.0502Z" fill="#02A68F"/>
<path d="M13.7407 19.2653H17.146C18.3209 19.2653 19.476 19.1864 20.5712 19.0127V17.3867C20.4517 17.4025 20.3522 17.4183 20.2327 17.4341C19.237 17.5762 18.1815 17.6551 17.1261 17.6551H11.7095V26.7008H8.06519V28.311H13.7208V19.2653H13.7407Z" fill="#323C3F"/>
</svg>
