<svg width="17" height="17" viewBox="0 0 17 17" fill="none" xmlns="http://www.w3.org/2000/svg">
<circle cx="8.5" cy="8.5" r="8" stroke="#02A68F"/>
<path d="M8.33933 6.52892H9.49133L8.23133 12.8889H7.07933L8.33933 6.52892ZM9.25133 5.30492C9.04333 5.30492 8.87133 5.23692 8.73533 5.10092C8.59933 4.96492 8.53133 4.80092 8.53133 4.60892C8.53133 4.38492 8.60733 4.19692 8.75933 4.04492C8.91933 3.88492 9.11933 3.80492 9.35933 3.80492C9.56733 3.80492 9.73933 3.87292 9.87533 4.00892C10.0193 4.13692 10.0913 4.29292 10.0913 4.47692C10.0913 4.72492 10.0113 4.92492 9.85133 5.07692C9.69933 5.22892 9.49933 5.30492 9.25133 5.30492Z" fill="#02A68F"/>
</svg>
