<svg width="26" height="26" viewBox="0 0 26 26" fill="none" xmlns="http://www.w3.org/2000/svg">
<path d="M18.2545 0H7.74554C3.47463 0 0 3.47463 0 7.74554V18.2545C0 22.5254 3.47463 26 7.74554 26H18.2545C22.5254 26 26 22.5254 26 18.2545V7.74554C26 3.47463 22.5253 0 18.2545 0ZM23.3844 18.2545C23.3844 21.0876 21.0876 23.3844 18.2545 23.3844H7.74554C4.91238 23.3844 2.6156 21.0876 2.6156 18.2545V7.74554C2.6156 4.91233 4.91238 2.6156 7.74554 2.6156H18.2545C21.0876 2.6156 23.3844 4.91233 23.3844 7.74554V18.2545Z" fill="#646E84"/>
<path d="M12.998 6.27539C9.29005 6.27539 6.27344 9.29201 6.27344 12.9999C6.27344 16.7077 9.29005 19.7244 12.998 19.7244C16.7059 19.7244 19.7225 16.7078 19.7225 12.9999C19.7225 9.29196 16.7059 6.27539 12.998 6.27539ZM12.998 17.1088C10.7286 17.1088 8.88904 15.2692 8.88904 12.9999C8.88904 10.7306 10.7287 8.89099 12.998 8.89099C15.2673 8.89099 17.1069 10.7306 17.1069 12.9999C17.1069 15.2692 15.2672 17.1088 12.998 17.1088Z" fill="#646E84"/>
<path d="M19.7363 7.93752C20.6262 7.93752 21.3477 7.2161 21.3477 6.32618C21.3477 5.43626 20.6262 4.71484 19.7363 4.71484C18.8464 4.71484 18.125 5.43626 18.125 6.32618C18.125 7.2161 18.8464 7.93752 19.7363 7.93752Z" fill="url(#paint0_linear)"/>
<defs>
<linearGradient id="paint0_linear" x1="19.7363" y1="25.9246" x2="19.7363" y2="0.202157" gradientUnits="userSpaceOnUse">
<stop stop-color="#646E84"/>
<stop offset="0.3" stop-color="#646E84"/>
<stop offset="0.6" stop-color="#646E84"/>
<stop offset="1" stop-color="#646E84"/>
</linearGradient>
</defs>
</svg>
