<svg width="191" height="37" viewBox="0 0 191 37" fill="none" xmlns="http://www.w3.org/2000/svg">
<path d="M81.3505 35.6838V23.7175C81.3505 21.2232 80.8526 19.4709 79.8769 18.4606C78.8812 17.4502 77.3279 16.9451 75.1771 16.9451C73.2057 16.9451 71.4931 17.6239 70.0592 18.9658C68.6254 20.3076 67.9085 21.9968 67.9085 24.0333V35.6838H65.6582V23.5754C65.6582 19.1552 63.5274 16.9293 59.2858 16.9293C57.2346 16.9293 55.5419 17.6081 54.1878 18.9658C52.8336 20.3234 52.1565 22.0757 52.1565 24.2227V35.6838H49.9062V15.7926H52.1565V19.092H52.2561C54.0085 16.5662 56.5575 15.3033 59.923 15.3033C61.7551 15.3033 63.3084 15.7137 64.6227 16.5504C65.937 17.3871 66.7933 18.4764 67.2514 19.834C68.028 18.3974 69.1631 17.2766 70.6168 16.4873C72.0706 15.6979 73.6637 15.2875 75.3763 15.2875C80.8726 15.2875 83.6008 17.987 83.6008 23.3702V35.668H81.3505V35.6838Z" fill="#323C3F"/>
<path d="M106.124 35.6839V31.7056H106.024C105.228 33.0633 104.053 34.1525 102.54 34.9577C101.006 35.7628 99.3134 36.1732 97.4614 36.1732C95.0717 36.1732 93.1998 35.6365 91.8058 34.5788C90.4118 33.5211 89.7148 32.1792 89.7148 30.5532C89.7148 27.0802 92.6223 24.9805 98.4173 24.2543L106.124 23.3387C106.124 19.0606 104.093 16.9294 100.05 16.9294C97.2822 16.9294 94.6137 17.8134 91.9851 19.5657V17.4187C92.921 16.8346 94.1756 16.3453 95.7687 15.919C97.3618 15.5086 98.8554 15.3033 100.269 15.3033C102.858 15.3033 104.85 15.9348 106.263 17.2135C107.677 18.4765 108.374 20.3235 108.374 22.7546V35.6839H106.124ZM99.2139 25.7699C96.5852 26.0698 94.7332 26.5434 93.6777 27.2222C92.6223 27.8853 92.0846 28.9745 92.0846 30.4743C92.0846 31.6583 92.5825 32.6213 93.5583 33.3948C94.554 34.1526 95.928 34.5472 97.6805 34.5472C100.09 34.5472 102.101 33.8368 103.714 32.416C105.308 30.9952 106.124 29.164 106.124 26.9381V24.9963L99.2139 25.7699Z" fill="#323C3F"/>
<path d="M127.751 17.6554C126.994 17.2292 126.118 17.0082 125.103 17.0082C123.131 17.0082 121.478 17.8133 120.124 19.4393C118.79 21.0653 118.113 23.3544 118.113 26.3381V35.6837H115.902V15.7926H118.113V20.1971H118.212C118.79 18.6816 119.686 17.4976 120.941 16.6609C122.175 15.8242 123.609 15.3979 125.242 15.3979C126.178 15.3979 127.014 15.5085 127.731 15.7453V17.6554H127.751Z" fill="#323C3F"/>
<path d="M146.829 35.6837L134.821 25.8644H134.721V35.6837H132.471V6.2417H134.721V25.2172H134.821L146.211 15.7926H149.119L137.21 25.4224L150.075 35.6679H146.829V35.6837Z" fill="#323C3F"/>
<path d="M155.272 25.8169C155.272 28.548 156.069 30.6792 157.662 32.2263C159.255 33.7734 161.445 34.5312 164.214 34.5312C167.021 34.5312 169.77 33.7102 172.438 32.0684V33.9786C169.849 35.4468 166.942 36.173 163.736 36.173C160.509 36.173 157.881 35.2573 155.889 33.4103C153.898 31.5791 152.902 28.9743 152.902 25.6275C152.902 22.7228 153.938 20.2916 156.029 18.3025C158.12 16.3134 160.808 15.3188 164.154 15.3188C167.28 15.3188 169.67 16.1871 171.323 17.9236C172.996 19.6602 173.812 22.0282 173.812 25.0276V25.8169H155.272ZM171.502 24.1751C171.402 21.8861 170.705 20.1022 169.411 18.8393C168.117 17.5763 166.344 16.9291 164.074 16.9291C161.724 16.9291 159.773 17.5605 158.239 18.8077C156.706 20.0548 155.75 21.8387 155.392 24.1751H171.502Z" fill="#323C3F"/>
<path d="M189.981 35.3996C188.807 35.8416 187.711 36.0626 186.676 36.0626C182.972 36.0626 181.12 34.2945 181.12 30.7741V17.4186H176.619V15.7926H181.12V10.6304C181.478 10.5199 181.857 10.4252 182.255 10.3147C182.653 10.22 183.031 10.1252 183.39 10.0305V15.7926H190.001V17.4186H183.39V30.5373C183.39 31.9107 183.669 32.9053 184.206 33.521C184.744 34.1367 185.68 34.4366 186.994 34.4366C187.93 34.4366 188.926 34.1998 190.001 33.7104V35.3996H189.981Z" fill="#323C3F"/>
<path d="M13.7407 28.3112H0V0.0532227H17.146C18.3607 0.0532227 19.5357 0.132157 20.6309 0.305809C21.766 0.479462 22.941 0.795194 24.1159 1.25301C25.3107 1.7266 26.3662 2.32649 27.2424 3.05268C28.1385 3.79465 28.8554 4.78921 29.413 5.98899C29.9507 7.17298 30.2295 8.54642 30.2295 10.0619C30.2295 11.4038 29.9507 12.6509 29.3931 13.7244C28.8355 14.8295 28.0987 15.7293 27.1827 16.4239C26.3064 17.087 25.251 17.6553 24.0761 18.0973C22.9211 18.5235 21.7461 18.8393 20.611 19.0129C19.4958 19.1866 18.3209 19.2655 17.146 19.2655H13.7407V28.3112ZM2.01131 26.7168H11.7294V17.6711H17.146C18.2014 17.6711 19.237 17.5921 20.2526 17.4501C21.2284 17.308 22.2241 17.0396 23.2198 16.6607C24.1955 16.2976 25.0718 15.824 25.7887 15.2715C26.4857 14.7348 27.0831 14.0244 27.5212 13.1403C27.9792 12.2405 28.1983 11.2144 28.1983 10.0619C28.1983 8.73585 27.9593 7.53607 27.5013 6.52573C27.0432 5.53117 26.4658 4.72606 25.7688 4.14195C25.0519 3.54206 24.1955 3.05268 23.2198 2.6738C22.2041 2.27913 21.2084 2.01076 20.2526 1.86868C19.2569 1.7266 18.2213 1.64767 17.1261 1.64767H1.9914V26.7168H2.01131Z" fill="#323C3F"/>
<path d="M40.4061 35.6833H26.4662L20.5916 25.8325V35.6833H8.10547V7.2832H25.0324C26.2472 7.2832 27.4221 7.36214 28.5373 7.52C29.6724 7.67787 30.8075 7.97782 31.9625 8.43563C33.1175 8.87765 34.1331 9.44597 34.9695 10.1248C35.8258 10.8036 36.5029 11.7192 37.0406 12.8559C37.5783 13.9925 37.8372 15.287 37.8372 16.7552C37.8372 20.244 35.9055 22.6436 32.0222 23.9539L40.4061 35.6833ZM20.8305 15.0502H20.5717V19.4073H20.8305C20.9102 19.4073 21.1093 19.4073 21.4678 19.4231C21.8063 19.4231 22.0453 19.4231 22.1847 19.4231C22.3042 19.4231 22.5232 19.4073 22.8419 19.3757C23.1605 19.3442 23.3795 19.3126 23.5189 19.2652C23.6583 19.2179 23.8575 19.1389 24.0765 19.0284C24.2956 18.9337 24.4748 18.8074 24.5744 18.6653C24.674 18.5233 24.7735 18.3338 24.8532 18.1128C24.9328 17.8918 24.9727 17.6392 24.9727 17.3551C24.9727 16.913 24.893 16.5342 24.7138 16.2342C24.5545 15.9343 24.3553 15.7133 24.1363 15.5554C23.9172 15.3975 23.6185 15.287 23.2003 15.2081C22.7821 15.1291 22.4635 15.0976 22.2046 15.0818C21.9457 15.066 21.5674 15.066 21.0496 15.066C20.95 15.0502 20.8903 15.0502 20.8305 15.0502Z" fill="#02A68F"/>
<path d="M13.7419 19.2653H17.1472C18.3222 19.2653 19.4772 19.1864 20.5725 19.0127V17.3867C20.453 17.4025 20.3534 17.4183 20.2339 17.4341C19.2382 17.5762 18.1828 17.6551 17.1273 17.6551H11.7107V26.7008H8.06641V28.311H13.722V19.2653H13.7419Z" fill="#323C3F"/>
</svg>
