<svg width="18" height="18" viewBox="0 0 18 18" fill="none" xmlns="http://www.w3.org/2000/svg">
<path d="M17.9742 6.93483C17.9121 6.74389 17.7472 6.60475 17.5485 6.57592L11.9684 5.76504L9.47288 0.708644C9.38408 0.528644 9.20074 0.414703 9.00003 0.414703C8.79929 0.414703 8.61598 0.528644 8.52715 0.708644L6.03148 5.76504L0.451505 6.57592C0.252908 6.60475 0.0878505 6.74389 0.0258351 6.93479C-0.0362154 7.12572 0.0155344 7.33529 0.159288 7.47539L4.1969 11.4113L3.24389 16.9688C3.20992 17.1667 3.29128 17.3666 3.45366 17.4846C3.54552 17.5513 3.65433 17.5853 3.76367 17.5853C3.84762 17.5853 3.93185 17.5653 4.00899 17.5247L9 14.9007L13.9908 17.5247C14.1685 17.6181 14.3838 17.6026 14.5462 17.4846C14.7085 17.3666 14.7899 17.1666 14.756 16.9688L13.8027 11.4113L17.8407 7.47535C17.9845 7.33529 18.0362 7.12572 17.9742 6.93483Z" fill="#02A68F"/>
</svg>
