<svg width="15" height="9" viewBox="0 0 15 9" fill="none" xmlns="http://www.w3.org/2000/svg">
<mask id="path-1-inside-1" fill="white">
<path d="M14.9082 0.915331C14.9085 0.732868 14.7637 0.584692 14.5847 0.584351C14.4984 0.584196 14.4156 0.619134 14.3547 0.681421L7.45429 7.71656L0.553945 0.681421C0.427219 0.552232 0.221771 0.552232 0.0950448 0.681421C-0.0316816 0.810611 -0.0316816 1.02005 0.0950448 1.14924L7.22487 8.41764C7.35141 8.54662 7.55656 8.54662 7.68313 8.41764L14.8129 1.14924C14.8739 1.08729 14.9082 1.00311 14.9082 0.915331Z"/>
</mask>
<path d="M14.9082 0.915331C14.9085 0.732868 14.7637 0.584692 14.5847 0.584351C14.4984 0.584196 14.4156 0.619134 14.3547 0.681421L7.45429 7.71656L0.553945 0.681421C0.427219 0.552232 0.221771 0.552232 0.0950448 0.681421C-0.0316816 0.810611 -0.0316816 1.02005 0.0950448 1.14924L7.22487 8.41764C7.35141 8.54662 7.55656 8.54662 7.68313 8.41764L14.8129 1.14924C14.8739 1.08729 14.9082 1.00311 14.9082 0.915331Z" fill="#02A68F"/>
<path d="M14.9082 0.915331L12.9082 0.915331L12.9082 0.911668L14.9082 0.915331ZM14.5847 0.584351L14.5883 -1.41565L14.5885 -1.41565L14.5847 0.584351ZM14.3547 0.681421L15.7842 2.08018L15.7825 2.08189L14.3547 0.681421ZM7.45429 7.71656L8.88211 9.11704L7.45428 10.5727L6.02646 9.11703L7.45429 7.71656ZM0.553945 0.681421L1.9817 -0.719116L1.98177 -0.719047L0.553945 0.681421ZM0.0950448 1.14924L1.5228 -0.251296L1.5228 -0.251296L0.0950448 1.14924ZM7.22487 8.41764L5.79728 9.81835L5.79711 9.81818L7.22487 8.41764ZM7.68313 8.41764L9.11089 9.81818L9.11055 9.81852L7.68313 8.41764ZM14.8129 1.14924L13.3852 -0.251295L13.3876 -0.253787L14.8129 1.14924ZM12.9082 0.911668C12.9066 1.7977 13.6197 2.58252 14.5809 2.58435L14.5885 -1.41565C15.9077 -1.41313 16.9105 -0.331962 16.9082 0.918995L12.9082 0.911668ZM14.5811 2.58435C15.04 2.58517 15.4722 2.39897 15.7842 2.08018L12.9252 -0.717338C13.359 -1.1607 13.9568 -1.41678 14.5883 -1.41565L14.5811 2.58435ZM15.7825 2.08189L8.88211 9.11704L6.02646 6.31609L12.9268 -0.71905L15.7825 2.08189ZM6.02646 9.11703L-0.873881 2.08189L1.98177 -0.719047L8.88211 6.3161L6.02646 9.11703ZM-0.873814 2.08196C-0.216495 2.75205 0.865485 2.75205 1.5228 2.08196L-1.33271 -0.719116C-0.421943 -1.64759 1.07093 -1.64759 1.9817 -0.719116L-0.873814 2.08196ZM1.5228 2.08196C2.15907 1.43333 2.15907 0.397333 1.5228 -0.251296L-1.33271 2.54978C-2.22243 1.64277 -2.22243 0.187892 -1.33271 -0.719116L1.5228 2.08196ZM1.5228 -0.251296L8.65263 7.01711L5.79711 9.81818L-1.33271 2.54978L1.5228 -0.251296ZM8.65246 7.01694C7.9949 6.34676 6.91301 6.34701 6.25571 7.01676L9.11055 9.81852C8.2001 10.7462 6.70792 10.7465 5.79728 9.81835L8.65246 7.01694ZM6.25537 7.01711L13.3852 -0.251293L16.2407 2.54978L9.11089 9.81818L6.25537 7.01711ZM13.3876 -0.253787C13.0764 0.0623283 12.9082 0.483683 12.9082 0.915331L16.9082 0.915331C16.9082 1.52254 16.6714 2.11226 16.2382 2.55227L13.3876 -0.253787Z" fill="#022334" mask="url(#path-1-inside-1)"/>
</svg>
