<svg width="18" height="33" viewBox="0 0 18 33" fill="none" xmlns="http://www.w3.org/2000/svg">
<mask id="path-1-inside-1" fill="white">
<path d="M0.751278 3.8147e-06C0.337112 -0.000736237 0.000774517 0.319927 1.16366e-06 0.716118C-0.00035036 0.907116 0.0789537 1.09038 0.220337 1.22529L16.1891 16.4996L0.220337 31.7738C-0.0729047 32.0543 -0.0729047 32.5091 0.220337 32.7896C0.513578 33.0701 0.988979 33.0701 1.28222 32.7896L17.7804 17.0074C18.0732 16.7273 18.0732 16.2732 17.7804 15.993L1.28222 0.210907C1.14161 0.0759315 0.950522 3.8147e-06 0.751278 3.8147e-06Z"/>
</mask>
<path d="M0.751278 3.8147e-06C0.337112 -0.000736237 0.000774517 0.319927 1.16366e-06 0.716118C-0.00035036 0.907116 0.0789537 1.09038 0.220337 1.22529L16.1891 16.4996L0.220337 31.7738C-0.0729047 32.0543 -0.0729047 32.5091 0.220337 32.7896C0.513578 33.0701 0.988979 33.0701 1.28222 32.7896L17.7804 17.0074C18.0732 16.7273 18.0732 16.2732 17.7804 15.993L1.28222 0.210907C1.14161 0.0759315 0.950522 3.8147e-06 0.751278 3.8147e-06Z" fill="#022334"/>
<path d="M0.751278 3.8147e-06V2.00001L0.747706 2L0.751278 3.8147e-06ZM1.16366e-06 0.716118L-2 0.712437L-1.99999 0.712215L1.16366e-06 0.716118ZM0.220337 1.22529L1.60104 -0.221653L1.60277 -0.219997L0.220337 1.22529ZM16.1891 16.4996L17.5715 15.0543L19.0825 16.4996L17.5715 17.9449L16.1891 16.4996ZM0.220337 31.7738L-1.16217 30.3286L-1.1621 30.3285L0.220337 31.7738ZM1.28222 32.7896L-0.100284 31.3444H-0.100284L1.28222 32.7896ZM17.7804 17.0074L19.1631 18.4525L19.1629 18.4526L17.7804 17.0074ZM17.7804 15.993L19.1629 14.5478L19.1633 14.5481L17.7804 15.993ZM1.28222 0.210907L-0.100283 1.65614L-0.102804 1.65372L1.28222 0.210907ZM0.747706 2C1.35389 2.00108 1.99845 1.51052 2 0.72002L-1.99999 0.712215C-1.99691 -0.870663 -0.67967 -2.00256 0.75485 -1.99999L0.747706 2ZM2 0.719799C2.00068 0.348671 1.84573 0.0118332 1.60104 -0.221653L-1.16037 2.67224C-1.68782 2.16893 -2.00138 1.46556 -2 0.712437L2 0.719799ZM1.60277 -0.219997L17.5715 15.0543L14.8067 17.9449L-1.1621 2.67058L1.60277 -0.219997ZM17.5715 17.9449L1.60277 33.2191L-1.1621 30.3285L14.8067 15.0543L17.5715 17.9449ZM1.60284 33.219C2.13293 32.712 2.13293 31.8515 1.60284 31.3444L-1.16217 34.2348C-2.27874 33.1667 -2.27874 31.3967 -1.16217 30.3286L1.60284 33.219ZM1.60284 31.3444C1.12283 30.8852 0.379731 30.8852 -0.100284 31.3444L2.66472 34.2348C1.59823 35.2551 -0.09567 35.2551 -1.16217 34.2348L1.60284 31.3444ZM-0.100284 31.3444L16.3979 15.5622L19.1629 18.4526L2.66472 34.2348L-0.100284 31.3444ZM16.3978 15.5624C15.8673 16.0699 15.8676 16.9307 16.3976 17.4379L19.1633 14.5481C20.2788 15.6158 20.2791 17.3847 19.1631 18.4525L16.3978 15.5624ZM16.3979 17.4383L-0.100281 1.65614L2.66472 -1.23432L19.1629 14.5478L16.3979 17.4383ZM-0.102804 1.65372C0.137992 1.88487 0.446781 2 0.751278 2V-2C1.45426 -2 2.14523 -1.73301 2.66724 -1.2319L-0.102804 1.65372Z" fill="black" mask="url(#path-1-inside-1)"/>
</svg>
