<svg width="351" height="236" viewBox="0 0 351 236" fill="none" xmlns="http://www.w3.org/2000/svg">
<path d="M325.187 2.92687L63.5422 0.571917C50.9887 0.458928 40.8677 10.4994 40.9807 22.9539L41.418 71.1617L5.73923 70.8406C2.92434 70.8152 0.662794 73.0581 0.688136 75.8515C0.713478 78.6448 3.01609 80.9288 5.83098 80.9541L66.9946 81.5046C69.8095 81.5299 72.0711 79.2871 72.0457 76.4937C72.0204 73.7004 69.7178 71.4164 66.9029 71.3911L51.612 71.2534L51.1746 23.0456C51.1603 21.4666 51.4558 19.9631 51.9855 18.5764L151.853 117.663L53.7672 214.968C53.2123 213.571 52.8894 212.062 52.8751 210.483L52.5753 177.445C52.55 174.652 50.2474 172.368 47.4325 172.343C44.6176 172.318 42.3561 174.56 42.3814 177.354L42.6811 210.391C42.7941 222.846 53.099 233.07 65.6525 233.183L327.297 235.538C339.85 235.651 349.971 225.611 349.858 213.156L348.158 25.7187C348.045 13.2642 337.74 3.03986 325.187 2.92687ZM238.986 118.447L337.072 21.1423C337.627 22.5388 337.95 24.0478 337.964 25.6269L339.665 213.064C339.679 214.643 339.383 216.147 338.854 217.534L238.986 118.447ZM325.278 13.0404C326.87 13.0547 328.391 13.3752 329.799 13.9258L217.112 125.715C205.296 137.439 185.894 137.264 173.863 125.326L59.1291 11.4896C60.5269 10.9642 62.0424 10.6711 63.634 10.6854L325.278 13.0404ZM65.5608 223.07C63.9691 223.055 62.4481 222.735 61.0406 222.184L159.126 124.879L166.72 132.414C174.74 140.371 185.218 144.409 195.66 144.503C206.102 144.597 216.508 140.747 224.385 132.933L231.844 125.534L331.711 224.62C330.313 225.146 328.797 225.439 327.206 225.424L65.5608 223.07Z" fill="white" fill-opacity="0.5"/>
<path d="M46.6985 91.4348C43.8836 91.4094 41.622 93.6523 41.6473 96.4457L41.7849 111.616L6.10613 111.295C3.29124 111.27 1.02968 113.512 1.05502 116.306C1.08036 119.099 3.38297 121.383 6.19786 121.408L87.7494 122.142C90.5643 122.168 92.8259 119.925 92.8006 117.131C92.7752 114.338 90.4726 112.054 87.6577 112.029L51.9789 111.708L51.8413 96.5374C51.816 93.7441 49.5133 91.4601 46.6985 91.4348Z" fill="white" fill-opacity="0.5"/>
<path d="M67.7285 162.413C70.5434 162.438 72.805 160.195 72.7797 157.402C72.7543 154.609 70.4517 152.325 67.6368 152.299L52.3459 152.162L52.2083 136.991C52.183 134.198 49.8803 131.914 47.0654 131.889C44.2506 131.864 41.989 134.106 42.0143 136.9L42.1519 152.07L6.47306 151.749C3.65816 151.724 1.3966 153.967 1.42194 156.76C1.44727 159.553 3.74989 161.837 6.56478 161.863L67.7285 162.413Z" fill="white" fill-opacity="0.5"/>
</svg>
