<svg width="10" height="11" viewBox="0 0 10 11" fill="none" xmlns="http://www.w3.org/2000/svg">
<path d="M0.140657 0.834435C-0.0468858 0.646892 -0.0468858 0.334758 0.140657 0.140657C0.334758 -0.0468858 0.640335 -0.0468858 0.834435 0.140657L4.99754 4.31076L9.16764 0.140657C9.35518 -0.0468858 9.66732 -0.0468858 9.85442 0.140657C10.0485 0.334758 10.0485 0.64733 9.85442 0.834435L5.69132 4.99798L9.85442 9.16808C10.0485 9.35562 10.0485 9.66776 9.85442 9.86186C9.66688 10.0494 9.35475 10.0494 9.16764 9.86186L4.99754 5.69176L0.834435 9.86186C0.640335 10.0494 0.334758 10.0494 0.140657 9.86186C-0.0468858 9.66776 -0.0468858 9.35519 0.140657 9.16808L4.30376 4.99798L0.140657 0.834435Z" fill="#022334"/>
</svg>
