<svg width="34" height="34" viewBox="0 0 34 34" fill="none" xmlns="http://www.w3.org/2000/svg">
<path d="M32.2631 9.03318C31.8958 7.66764 30.8192 6.59119 29.4538 6.2235C26.9595 5.54102 16.982 5.54102 16.982 5.54102C16.982 5.54102 7.00495 5.54102 4.51063 6.19762C3.17154 6.56493 2.06864 7.66783 1.70133 9.03318C1.04492 11.5273 1.04492 16.6998 1.04492 16.6998C1.04492 16.6998 1.04492 21.8984 1.70133 24.3664C2.06903 25.7318 3.14528 26.8082 4.51082 27.1759C7.03121 27.8586 16.9824 27.8586 16.9824 27.8586C16.9824 27.8586 26.9595 27.8586 29.4538 27.202C30.8194 26.8345 31.8958 25.758 32.2635 24.3927C32.9197 21.8984 32.9197 16.7261 32.9197 16.7261C32.9197 16.7261 32.946 11.5273 32.2631 9.03318ZM13.8054 21.4783V11.9213L22.1022 16.6998L13.8054 21.4783Z" fill="#646E84"/>
</svg>
