<svg width="194" height="206" viewBox="0 0 194 206" fill="none" xmlns="http://www.w3.org/2000/svg">
<path d="M155.667 80.5419L80.5906 141.621C74.4673 146.886 73.4163 155.811 78.2071 162.088C81.2695 165.803 85.346 167.711 89.8356 167.472C92.9163 167.627 96.072 166.238 99.0962 164.378L174.173 103.298C180.296 98.0341 181.347 89.1092 176.556 82.8313C171.296 76.6846 161.922 75.7485 155.667 80.5419Z" fill="#02A68F" fill-opacity="0.4"/>
<path d="M154.848 160.993L135.407 176.577C129.284 181.842 128.233 190.767 133.024 197.044C136.086 200.759 140.163 202.666 144.652 202.428C147.733 202.583 150.889 201.194 153.913 199.334L173.354 183.749C179.477 178.485 180.528 169.56 175.737 163.282C170.477 157.136 161.103 156.2 154.848 160.993Z" fill="#02A68F" fill-opacity="0.4"/>
<path d="M39.1135 130.867C33.4782 132.441 27.3917 130.587 23.5967 126.061C18.3362 119.915 19.2556 110.519 25.9801 105.594L147.207 6.74641C153.33 1.48207 162.704 2.41812 167.627 9.167C172.887 15.3137 171.968 24.7097 165.243 29.6342L44.4857 128.351C42.7389 129.347 40.992 130.342 39.1135 130.867Z" fill="#02A68F" fill-opacity="0.4"/>
</svg>
