<svg width="80" height="81" viewBox="0 0 80 81" fill="none" xmlns="http://www.w3.org/2000/svg">
<path d="M47.6562 40.2728C47.6562 44.485 44.2285 47.8994 40 47.8994C35.7715 47.8994 32.3438 44.485 32.3438 40.2728C32.3438 36.0607 35.7715 32.6462 40 32.6462C44.2285 32.6462 47.6562 36.0607 47.6562 40.2728Z" fill="#02A68F"/>
<path d="M57.9058 26.779C57.5377 25.7856 56.9506 24.8863 56.1876 24.1482C55.4467 23.3882 54.5446 22.8034 53.5466 22.4367C52.7373 22.1236 51.5215 21.7509 49.2821 21.6494C46.8596 21.5393 46.1333 21.5156 40.0005 21.5156C33.8671 21.5156 33.1407 21.5387 30.7189 21.6488C28.4795 21.7509 27.2631 22.1236 26.4543 22.4367C25.4564 22.8034 24.5537 23.3882 23.8134 24.1482C23.0504 24.8863 22.4633 25.785 22.0946 26.779C21.7803 27.5852 21.4061 28.797 21.3042 31.0277C21.1937 33.4402 21.1699 34.1637 21.1699 40.2734C21.1699 46.3826 21.1937 47.1061 21.3042 49.5192C21.4061 51.7499 21.7803 52.961 22.0946 53.7672C22.4633 54.7613 23.0498 55.6599 23.8127 56.398C24.5537 57.158 25.4558 57.7429 26.4537 58.1095C27.2631 58.4233 28.4795 58.796 30.7189 58.8975C33.1407 59.0075 33.8665 59.0306 39.9999 59.0306C46.1339 59.0306 46.8602 59.0075 49.2815 58.8975C51.5209 58.796 52.7373 58.4233 53.5466 58.1095C55.5498 57.3398 57.1331 55.7627 57.9058 53.7672C58.2201 52.961 58.5942 51.7499 58.6968 49.5192C58.8073 47.1061 58.8304 46.3826 58.8304 40.2734C58.8304 34.1637 58.8073 33.4402 58.6968 31.0277C58.5948 28.797 58.2207 27.5852 57.9058 26.779ZM40.0005 52.0217C33.4862 52.0217 28.2054 46.7619 28.2054 40.2728C28.2054 33.7837 33.4862 28.524 40.0005 28.524C46.5142 28.524 51.7949 33.7837 51.7949 40.2728C51.7949 46.7619 46.5142 52.0217 40.0005 52.0217ZM52.2612 30.8052C50.739 30.8052 49.5049 29.5758 49.5049 28.0595C49.5049 26.5431 50.739 25.3138 52.2612 25.3138C53.7834 25.3138 55.0176 26.5431 55.0176 28.0595C55.017 29.5758 53.7834 30.8052 52.2612 30.8052Z" fill="#02A68F"/>
<path d="M40 0.427612C17.912 0.427612 0 18.2703 0 40.2728C0 62.2754 17.912 80.118 40 80.118C62.088 80.118 80 62.2754 80 40.2728C80 18.2703 62.088 0.427612 40 0.427612ZM62.8302 49.7058C62.7191 52.1414 62.3303 53.8042 61.7627 55.2598C60.5695 58.3332 58.1305 60.7627 55.0452 61.9513C53.5846 62.5167 51.9147 62.9034 49.4702 63.0147C47.0209 63.1259 46.2384 63.1527 40.0006 63.1527C33.7622 63.1527 32.9803 63.1259 30.5304 63.0147C28.0859 62.9034 26.416 62.5167 24.9554 61.9513C23.4222 61.3768 22.0343 60.4763 20.8868 59.312C19.7186 58.1696 18.8147 56.7864 18.2379 55.2598C17.6703 53.8049 17.2815 52.1414 17.1704 49.7064C17.0575 47.2659 17.0312 46.4865 17.0312 40.2728C17.0312 34.0592 17.0575 33.2797 17.1698 30.8399C17.2809 28.4043 17.6691 26.7414 18.2367 25.2859C18.8135 23.7592 19.718 22.376 20.8868 21.2336C22.0337 20.0693 23.4222 19.1689 24.9548 18.5943C26.416 18.0289 28.0853 17.6422 30.5304 17.531C32.9797 17.4197 33.7622 17.393 40 17.393C46.2378 17.393 47.0203 17.4197 49.4696 17.5316C51.9147 17.6422 53.584 18.0289 55.0452 18.5937C56.5778 19.1683 57.9663 20.0693 59.1138 21.2336C60.282 22.3766 61.1865 23.7592 61.7627 25.2859C62.3309 26.7414 62.7191 28.4043 62.8308 30.8399C62.9425 33.2797 62.9688 34.0592 62.9688 40.2728C62.9688 46.4865 62.9425 47.2659 62.8302 49.7058Z" fill="#02A68F"/>
</svg>
