<svg width="76" height="77" viewBox="0 0 76 77" fill="none" xmlns="http://www.w3.org/2000/svg">
<path d="M38 0.929443C17.0164 0.929443 0 17.8801 0 38.7825C0 59.6849 17.0164 76.6355 38 76.6355C58.9836 76.6355 76 59.6849 76 38.7825C76 17.8801 58.9836 0.929443 38 0.929443ZM57.0638 29.8919V35.0173C54.6376 35.0182 52.2803 34.5446 50.057 33.6102C48.6274 33.009 47.2955 32.2343 46.0772 31.2982L46.1137 47.0742C46.0985 50.6266 44.6876 53.9643 42.134 56.4785C40.0559 58.5249 37.4226 59.8262 34.5684 60.2475C33.8978 60.3464 33.2153 60.3971 32.525 60.3971C29.4697 60.3971 26.5691 59.4112 24.1964 57.5922C23.7499 57.2497 23.3228 56.8784 22.9162 56.4785C20.1488 53.7538 18.7217 50.061 18.962 46.1762C19.1453 43.2191 20.3339 40.3989 22.3152 38.1885C24.9366 35.2635 28.6039 33.6399 32.525 33.6399C33.2153 33.6399 33.8978 33.6915 34.5684 33.7905V35.6855V40.9571C33.9325 40.7482 33.2534 40.6333 32.5463 40.6333C28.9639 40.6333 26.0656 43.5447 26.1192 47.1159C26.1532 49.4008 27.4062 51.3982 29.2542 52.4992C30.1227 53.0167 31.1219 53.3373 32.1881 53.3955C33.0235 53.4412 33.8256 53.3253 34.5684 53.081C37.1279 52.2388 38.9743 49.844 38.9743 47.0195L38.9828 36.4551V17.1678H46.0686C46.0754 17.8672 46.1467 18.5496 46.2791 19.2108C46.8139 21.8873 48.3284 24.2094 50.4362 25.7924C52.2742 27.1733 54.5628 27.9918 57.0433 27.9918C57.045 27.9918 57.0655 27.9918 57.0637 27.9902V29.8919H57.0638Z" fill="#02A68F"/>
</svg>
