<svg width="70" height="70" viewBox="0 0 70 70" fill="none" xmlns="http://www.w3.org/2000/svg">
<path d="M30.6406 41.4392L42.0258 34.9074L30.6406 28.3756V41.4392Z" fill="#02A68F"/>
<path d="M35 0.0428467C15.673 0.0428467 0 15.6552 0 34.9075C0 54.1597 15.673 69.7721 35 69.7721C54.327 69.7721 70 54.1597 70 34.9075C70 15.6552 54.327 0.0428467 35 0.0428467ZM56.8697 34.9431C56.8697 34.9431 56.8697 42.0138 55.9692 45.4234C55.4646 47.2896 53.9874 48.7611 52.1139 49.2633C48.6911 50.1607 35 50.1607 35 50.1607C35 50.1607 21.3447 50.1607 17.8861 49.2276C16.0126 48.7254 14.5354 47.2534 14.0308 45.3872C13.1298 42.0138 13.1298 34.9075 13.1298 34.9075C13.1298 34.9075 13.1298 27.8373 14.0308 24.4278C14.5349 22.5615 16.0484 21.0539 17.8861 20.5517C21.3089 19.6542 35 19.6542 35 19.6542C35 19.6542 48.6911 19.6542 52.1139 20.5873C53.9874 21.0895 55.4646 22.5615 55.9692 24.4278C56.906 27.8373 56.8697 34.9431 56.8697 34.9431Z" fill="#02A68F"/>
</svg>
