<svg width="70" height="70" viewBox="0 0 70 70" fill="none" xmlns="http://www.w3.org/2000/svg">
<g clip-path="url(#clip0)">
<path d="M44.765 45.6741C44.8284 45.389 44.7416 45.0916 44.5355 44.8854L38.3442 38.6942C40.1632 36.1871 39.8898 32.7297 37.6995 30.5394C35.5092 28.3491 32.0518 28.0757 29.5448 29.8947L23.3529 23.7035C23.1468 23.4967 22.8494 23.4106 22.5649 23.4734C22.2798 23.5367 22.0469 23.7407 21.9474 24.0153L16.8505 38.0311C15.1704 42.6307 12.5088 46.8095 9.05139 50.2775C7.65475 51.6741 7.65475 53.9389 9.05139 55.3361L12.9029 59.187C14.2995 60.5842 16.5643 60.5842 17.9609 59.187C17.9848 59.1636 18.0092 59.1409 18.032 59.1175L25.9967 67.0822C26.3302 67.4157 26.8704 67.4157 27.2039 67.0822C29.6648 64.6218 29.6648 60.6325 27.2039 58.1722L23.6553 54.6236C25.715 53.3097 27.9119 52.2249 30.2072 51.3879L44.2231 46.291C44.4971 46.1915 44.7016 45.9586 44.765 45.6741ZM33.2439 30.4016C34.9218 30.4016 36.4657 31.3158 37.2721 32.7869C38.0786 34.258 38.0185 36.0521 37.1154 37.4659L30.7724 31.123C31.5099 30.65 32.368 30.3994 33.2439 30.4016ZM15.4322 58.5273C14.9359 58.529 14.4601 58.3317 14.11 57.9799L10.2591 54.1284C9.52879 53.3987 9.52879 52.2149 10.2591 51.4846C10.9238 50.8194 11.5618 50.1263 12.1731 49.4066L18.8312 56.0658C18.1126 56.6766 17.4201 57.3146 16.7532 57.9799C16.4036 58.3317 15.9279 58.529 15.4322 58.5273ZM25.9973 59.3798C27.5579 60.941 27.788 63.3914 26.5453 65.216L19.2747 57.9454C20.2101 57.1084 21.1916 56.3242 22.2142 55.5967L25.9973 59.3798ZM29.6237 49.7834C26.2252 51.0255 23.0362 52.7807 20.169 54.9882L13.2508 48.07C15.4577 45.2022 17.2128 42.0138 18.455 38.6147L23.0934 25.8582L42.3802 45.1444L29.6237 49.7834Z" fill="#02A68F"/>
<path d="M42.5371 27.5305C39.9088 24.8973 35.9607 24.0914 32.5116 25.4853C32.0742 25.6615 31.8624 26.1589 32.0386 26.5963C32.2148 27.0337 32.7122 27.2454 33.1496 27.0692C35.964 25.9355 39.1836 26.5918 41.3294 28.7377C43.4746 30.8829 44.1316 34.1025 42.9978 36.9174C42.8216 37.3543 43.0334 37.8517 43.4708 38.0279C43.9081 38.204 44.405 37.9923 44.5812 37.5555C45.975 34.1064 45.1697 30.1582 42.5371 27.5305Z" fill="#02A68F"/>
<path d="M47.6253 39.615C48.0627 39.7912 48.5601 39.5795 48.7363 39.1421C50.7871 34.0518 49.6 28.229 45.7191 24.3487C41.8387 20.4678 36.0154 19.2806 30.9256 21.3314C30.4883 21.5076 30.2765 22.005 30.4527 22.4424C30.6289 22.8798 31.1263 23.0915 31.5637 22.9154C36.0187 21.1202 41.1156 22.1595 44.5119 25.5558C47.9082 28.9521 48.9475 34.049 47.1524 38.5041C46.9762 38.9415 47.1879 39.4389 47.6253 39.615Z" fill="#02A68F"/>
<path d="M57.1414 0C50.0398 0 44.2832 5.75664 44.2832 12.8582C44.2832 19.9598 50.0398 25.7165 57.1414 25.7165C64.243 25.7165 69.9997 19.9598 69.9997 12.8582C69.9919 5.75997 64.2397 0.00778074 57.1414 0ZM57.1414 24.0091C50.983 24.0091 45.9905 19.0167 45.9905 12.8582C45.9905 6.69977 50.983 1.70732 57.1414 1.70732C63.2999 1.70732 68.2924 6.69977 68.2924 12.8582C68.2851 19.0139 63.2971 24.0019 57.1414 24.0091Z" fill="#02A68F"/>
<path d="M61.7609 11.3649C63.5221 11.3649 64.9504 9.93879 64.9532 8.17701C64.9554 6.41578 63.531 4.98524 61.7698 4.98024C60.0085 4.97524 58.5758 6.398 58.5686 8.15923L54.6098 10.4451C53.3321 9.33912 51.4142 9.42026 50.2343 10.6302C49.0549 11.8401 49.0227 13.7597 50.1615 15.0085C51.2997 16.2573 53.2143 16.4024 54.5281 15.3397L58.5863 17.8829C58.7536 19.4596 60.0513 20.6751 61.6358 20.7385C63.2198 20.8018 64.6109 19.6942 64.9037 18.1358C65.1961 16.5774 64.3018 15.0402 62.8024 14.525C61.3029 14.0092 59.6523 14.6712 58.9248 16.08L55.5235 13.9487C55.7669 13.279 55.7792 12.5465 55.558 11.869L59.0482 9.85321C59.6301 10.7925 60.656 11.3643 61.7609 11.3649ZM61.7609 6.68811C62.5806 6.68811 63.2453 7.35281 63.2453 8.17312C63.2453 8.99288 62.5806 9.65758 61.7603 9.65758C60.9406 9.65758 60.2753 8.99288 60.2753 8.17256C60.2764 7.35281 60.9406 6.68867 61.7609 6.68811ZM52.5229 14.3432C51.7032 14.3432 51.0385 13.678 51.0385 12.8582C51.0385 12.0379 51.7032 11.3732 52.5235 11.3732C53.3432 11.3732 54.0085 12.0379 54.0085 12.8582C54.0074 13.678 53.3432 14.3421 52.5229 14.3432ZM61.7609 16.0589C62.5806 16.0589 63.2453 16.7236 63.2453 17.5439C63.2453 18.3642 62.5806 19.0289 61.7603 19.0289C60.94 19.0289 60.2753 18.3637 60.2753 17.5439C60.2764 16.7242 60.9406 16.0595 61.7609 16.0589Z" fill="#02A68F"/>
<path d="M57.1414 44.2836C50.0398 44.2836 44.2832 50.0402 44.2832 57.1418C44.2832 64.2434 50.0398 70 57.1414 70C64.243 70 69.9997 64.2434 69.9997 57.1418C69.9919 50.0435 64.2397 44.2914 57.1414 44.2836ZM57.1414 68.2927C50.983 68.2927 45.9905 63.3003 45.9905 57.1418C45.9905 50.9833 50.983 45.9909 57.1414 45.9909C63.2999 45.9909 68.2924 50.9833 68.2924 57.1418C68.2851 63.2975 63.2971 68.2855 57.1414 68.2927Z" fill="#02A68F"/>
<path d="M62.4204 56.4159L55.4277 52.0904C55.1643 51.9275 54.8336 51.9203 54.5629 52.0709C54.2928 52.2215 54.125 52.5066 54.125 52.8162V61.4667C54.125 61.7763 54.2928 62.0614 54.5629 62.212C54.8336 62.3626 55.1643 62.3548 55.4277 62.192L62.4204 57.867C62.6721 57.7114 62.825 57.4369 62.825 57.1406C62.825 56.845 62.6721 56.5704 62.4204 56.4148V56.4159ZM55.8323 59.935V54.3485L60.3485 57.1417L55.8323 59.935Z" fill="#02A68F"/>
<path d="M12.8582 25.7165C19.9598 25.7165 25.7165 19.9598 25.7165 12.8582C25.7165 5.75664 19.9598 0 12.8582 0C5.75664 0 0 5.75664 0 12.8582C0.00778074 19.9565 5.75997 25.7087 12.8582 25.7165ZM12.8582 1.70732C19.0167 1.70732 24.0091 6.69977 24.0091 12.8582C24.0091 19.0167 19.0167 24.0091 12.8582 24.0091C6.69977 24.0091 1.70732 19.0167 1.70732 12.8582C1.71454 6.70255 6.70255 1.71454 12.8582 1.70732Z" fill="#02A68F"/>
<path d="M7.61236 17.9635H13.7214C14.9785 17.9618 15.9967 16.9437 15.9978 15.6871V15.5515L19.1173 17.2632C19.3818 17.4083 19.7031 17.4033 19.9626 17.2493C20.2227 17.0959 20.3817 16.8164 20.3817 16.5146V9.20182C20.3817 8.90003 20.2222 8.62104 19.9626 8.46709C19.7031 8.3137 19.3818 8.30814 19.1173 8.4532L15.9978 10.1655V10.0294C15.9967 8.77276 14.9785 7.7546 13.7214 7.75293H7.61236C6.35577 7.7546 5.3376 8.77276 5.33594 10.0294V15.6871C5.3376 16.9437 6.35577 17.9618 7.61236 17.9635ZM18.6744 10.644V15.0724L15.9978 13.604V12.1129L18.6744 10.644ZM7.04325 10.0294C7.04325 9.71534 7.2978 9.46025 7.61236 9.46025H13.7214C14.0359 9.46025 14.2905 9.71534 14.2905 10.0294V15.6871C14.2905 16.0011 14.0359 16.2562 13.7214 16.2562H7.61236C7.2978 16.2562 7.04325 16.0011 7.04325 15.6871V10.0294Z" fill="#02A68F"/>
</g>
<defs>
<clipPath id="clip0">
<rect width="70" height="70" fill="white"/>
</clipPath>
</defs>
</svg>
