<svg width="76" height="76" viewBox="0 0 76 76" fill="none" xmlns="http://www.w3.org/2000/svg">
<path d="M18.0156 26.9017C17.7794 26.9017 17.5529 26.9955 17.3859 27.1625C17.2188 27.3296 17.125 27.5561 17.125 27.7923V34.7763C17.125 35.0125 17.2188 35.239 17.3859 35.4061C17.5529 35.5731 17.7794 35.6669 18.0156 35.6669C18.2518 35.6669 18.4784 35.5731 18.6454 35.4061C18.8124 35.239 18.9062 35.0125 18.9062 34.7763V27.7923C18.9062 27.5561 18.8124 27.3296 18.6454 27.1625C18.4784 26.9955 18.2518 26.9017 18.0156 26.9017Z" fill="#02A68F"/>
<path d="M21.6797 26.9017C21.4435 26.9017 21.2169 26.9955 21.0499 27.1625C20.8829 27.3296 20.7891 27.5561 20.7891 27.7923V34.7763C20.7891 35.0125 20.8829 35.239 21.0499 35.4061C21.2169 35.5731 21.4435 35.6669 21.6797 35.6669C21.9159 35.6669 22.1424 35.5731 22.3095 35.4061C22.4765 35.239 22.5703 35.0125 22.5703 34.7763V27.7923C22.5703 27.5561 22.4765 27.3296 22.3095 27.1625C22.1424 26.9955 21.9159 26.9017 21.6797 26.9017Z" fill="#02A68F"/>
<path d="M14.3516 26.9017C14.1154 26.9017 13.8888 26.9955 13.7218 27.1625C13.5548 27.3296 13.4609 27.5561 13.4609 27.7923V34.7763C13.4609 35.0125 13.5548 35.239 13.7218 35.4061C13.8888 35.5731 14.1154 35.6669 14.3516 35.6669C14.5878 35.6669 14.8143 35.5731 14.9813 35.4061C15.1484 35.239 15.2422 35.0125 15.2422 34.7763V27.7923C15.2422 27.5561 15.1484 27.3296 14.9813 27.1625C14.8143 26.9955 14.5878 26.9017 14.3516 26.9017Z" fill="#02A68F"/>
<path d="M26.8488 36.2366V23.7251C27.4554 23.454 27.9505 22.9829 28.2514 22.3906C28.5523 21.7982 28.6408 21.1206 28.5021 20.4709C28.3633 19.8211 28.0058 19.2387 27.4892 18.821C26.9726 18.4032 26.3282 18.1754 25.6638 18.1757H22.7053V16.8249C22.7049 16.4056 22.5382 16.0035 22.2416 15.707C21.945 15.4104 21.5429 15.2437 21.1236 15.2433H14.9088C14.4896 15.2438 14.0876 15.4106 13.7912 15.707C13.4947 16.0035 13.328 16.4054 13.3275 16.8247V18.1754H10.369C9.70461 18.1751 9.06026 18.4029 8.54366 18.8207C8.02705 19.2384 7.6695 19.8208 7.53076 20.4706C7.39202 21.1203 7.4805 21.798 7.78142 22.3903C8.08234 22.9826 8.57746 23.4537 9.18401 23.7248V36.2366C9.18491 37.0798 9.52028 37.8883 10.1165 38.4845C10.7128 39.0808 11.5212 39.4162 12.3644 39.4171H23.6684C24.5116 39.4162 25.3201 39.0808 25.9163 38.4845C26.5125 37.8883 26.8479 37.0798 26.8488 36.2366ZM15.1087 17.0246H20.9241V18.1757H15.1087V17.0246ZM10.369 19.957H25.6638C25.959 19.9604 26.2409 20.08 26.4484 20.2899C26.6559 20.4998 26.7722 20.7831 26.7722 21.0782C26.7722 21.3734 26.6559 21.6566 26.4484 21.8665C26.2409 22.0764 25.959 22.196 25.6638 22.1994H10.369C10.0739 22.196 9.79196 22.0764 9.58446 21.8665C9.37696 21.6566 9.26059 21.3734 9.26059 21.0782C9.26059 20.7831 9.37696 20.4998 9.58446 20.2899C9.79196 20.08 10.0739 19.9604 10.369 19.957ZM10.9653 36.2366V23.9807H25.0676V36.2366C25.0672 36.6075 24.9196 36.9632 24.6573 37.2256C24.395 37.4879 24.0394 37.6355 23.6684 37.6359H12.3644C11.9935 37.6355 11.6378 37.4879 11.3755 37.2256C11.1132 36.9632 10.9656 36.6075 10.9653 36.2366Z" fill="#02A68F"/>
<path d="M54.0041 34.2496V22.9752C54.0041 22.8254 53.9663 22.6781 53.8943 22.5468C53.8223 22.4155 53.7183 22.3045 53.5919 22.224C53.4656 22.1436 53.321 22.0963 53.1716 22.0865C53.0221 22.0767 52.8726 22.1048 52.7369 22.1681L35.5937 30.1689C35.1069 30.3965 34.6139 30.6153 34.1147 30.8253C34.7931 27.6983 34.5462 24.4413 33.4042 21.4523C32.2622 18.4632 30.2745 15.8714 27.6838 13.9934C25.0931 12.1154 22.0116 11.0324 18.8156 10.8767C15.6196 10.7211 12.4474 11.4995 9.68651 13.1169C6.9256 14.7343 4.69542 17.1207 3.26834 19.9846C1.84127 22.8485 1.27906 26.066 1.65038 29.2442C2.02171 32.4224 3.31049 35.4236 5.35934 37.8814C7.40818 40.3393 10.1284 42.1473 13.1878 43.0846V45.4292C13.1892 46.5812 13.6474 47.6855 14.4619 48.5001C15.2765 49.3146 16.3809 49.7728 17.5329 49.7741C17.639 49.7741 17.7451 49.7778 17.8513 49.7786V64.2558C17.8513 64.492 17.9451 64.7186 18.1121 64.8856C18.2792 65.0526 18.5057 65.1465 18.7419 65.1465C20.8097 65.1441 22.7921 64.3216 24.2542 62.8594C25.7163 61.3972 26.5386 59.4147 26.5408 57.3469V50.7447C29.6621 51.416 32.6984 52.4344 35.5931 53.7809L52.7363 61.7817C52.8721 61.845 53.0216 61.8731 53.171 61.8633C53.3205 61.8535 53.4651 61.8062 53.5914 61.7257C53.7177 61.6453 53.8217 61.5342 53.8938 61.4029C53.9658 61.2716 54.0036 61.1242 54.0035 60.9745V49.6997C55.8703 49.4434 57.581 48.5197 58.8195 47.0996C60.0579 45.6795 60.7402 43.8589 60.7402 41.9747C60.7402 40.0904 60.0579 38.2699 58.8195 36.8498C57.581 35.4296 55.8703 34.506 54.0035 34.2496H54.0041ZM3.32029 27.3302C3.31935 24.4224 4.18081 21.5796 5.79572 19.1615C7.41062 16.7434 9.70641 14.8585 12.3927 13.7453C15.079 12.6321 18.0351 12.3406 20.887 12.9076C23.739 13.4747 26.3587 14.8748 28.4149 16.9309C30.471 18.9871 31.8711 21.6068 32.4382 24.4588C33.0052 27.3108 32.7137 30.2668 31.6005 32.9531C30.4873 35.6394 28.6024 37.9352 26.1843 39.5501C23.7662 41.165 20.9234 42.0265 18.0156 42.0255C14.1195 42.0211 10.3843 40.4715 7.62931 37.7165C4.87435 34.9615 3.32469 31.2263 3.32029 27.3302ZM14.9691 45.4292V43.5233C18.2744 44.1438 21.6905 43.7393 24.7596 42.3641V48.5897C22.3708 48.1936 19.9537 47.9938 17.5323 47.9923C16.8528 47.9913 16.2014 47.721 15.7209 47.2405C15.2404 46.7601 14.9701 46.1087 14.9691 45.4292ZM24.7596 57.3469C24.7577 58.7883 24.2394 60.1812 23.2987 61.2732C22.358 62.3652 21.0571 63.084 19.6319 63.2993V49.8295C21.3511 49.9161 23.0634 50.1064 24.7596 50.3993V57.3469ZM26.5408 48.9219V41.4316C29.7448 39.4895 32.1929 36.5153 33.4828 32.9977C34.4487 32.6266 35.4111 32.2197 36.3469 31.783L46.5232 27.0341V56.9157L36.3469 52.1666C33.2148 50.7091 29.9241 49.6202 26.5408 48.9219ZM52.2223 59.5757L48.3035 57.747V26.2024L52.2223 24.3736V59.5757ZM54.0035 47.897V36.0524C55.3929 36.3016 56.6505 37.0313 57.5562 38.1139C58.4619 39.1965 58.9582 40.5631 58.9582 41.9747C58.9582 43.3862 58.4619 44.7528 57.5562 45.8355C56.6505 46.9181 55.3929 47.6478 54.0035 47.897Z" fill="#02A68F"/>
<path d="M69.0125 41.9751C69.0148 39.799 68.376 37.6704 67.1759 35.8551C65.9758 34.0398 64.2675 32.6183 62.2644 31.768C62.0474 31.6773 61.8033 31.6761 61.5855 31.7647C61.3676 31.8533 61.1937 32.0245 61.1015 32.2409C61.0094 32.4573 61.0066 32.7013 61.0938 32.9198C61.181 33.1382 61.351 33.3133 61.5668 33.4069C63.247 34.1221 64.6798 35.3156 65.6869 36.8389C66.6941 38.3622 67.2311 40.148 67.2311 41.9742C67.2311 43.8003 66.6941 45.5861 65.6869 47.1094C64.6798 48.6327 63.247 49.8262 61.5668 50.5414C61.4584 50.5867 61.36 50.653 61.2774 50.7365C61.1947 50.8199 61.1294 50.9189 61.0851 51.0277C61.0409 51.1365 61.0186 51.253 61.0196 51.3704C61.0205 51.4879 61.0447 51.604 61.0907 51.712C61.1367 51.8201 61.2036 51.918 61.2876 52.0001C61.3716 52.0822 61.471 52.1469 61.5801 52.1904C61.6892 52.2339 61.8058 52.2555 61.9233 52.2537C62.0407 52.252 62.1566 52.2271 62.2644 52.1803C64.2674 51.3303 65.9755 49.9091 67.1756 48.0942C68.3757 46.2792 69.0146 44.151 69.0125 41.9751Z" fill="#02A68F"/>
<path d="M64.4617 26.8507C64.3539 26.804 64.238 26.779 64.1205 26.7773C64.0031 26.7756 63.8865 26.7971 63.7774 26.8406C63.6683 26.8842 63.5689 26.9488 63.4849 27.0309C63.4009 27.113 63.334 27.2109 63.288 27.319C63.242 27.4271 63.2178 27.5432 63.2168 27.6606C63.2159 27.7781 63.2382 27.8946 63.2824 28.0034C63.3267 28.1122 63.392 28.2111 63.4746 28.2946C63.5573 28.378 63.6556 28.4443 63.764 28.4896C66.4087 29.6153 68.6639 31.4939 70.2491 33.8915C71.8343 36.2891 72.6795 39.0999 72.6795 41.9742C72.6795 44.8485 71.8343 47.6593 70.2491 50.0569C68.6639 52.4545 66.4087 54.333 63.764 55.4588C63.6556 55.5041 63.5573 55.5703 63.4746 55.6538C63.392 55.7372 63.3267 55.8362 63.2824 55.945C63.2382 56.0538 63.2159 56.1703 63.2168 56.2877C63.2178 56.4052 63.242 56.5213 63.288 56.6294C63.334 56.7374 63.4009 56.8353 63.4849 56.9174C63.5689 56.9995 63.6683 57.0642 63.7774 57.1077C63.8865 57.1513 64.0031 57.1728 64.1205 57.1711C64.238 57.1693 64.3539 57.1444 64.4617 57.0977C67.4278 55.8352 69.9573 53.7284 71.7352 51.0393C73.5132 48.3503 74.4611 45.1978 74.4611 41.9742C74.4611 38.7505 73.5132 35.598 71.7352 32.909C69.9573 30.22 67.4278 28.1132 64.4617 26.8507Z" fill="#02A68F"/>
</svg>
