<svg width="72" height="72" viewBox="0 0 72 72" fill="none" xmlns="http://www.w3.org/2000/svg">
<path d="M30.3672 10.0554V11.8522C30.3672 12.5714 30.5088 13.2835 30.784 13.9479C31.0592 14.6123 31.4626 15.216 31.9711 15.7245C32.4796 16.233 33.0833 16.6364 33.7477 16.9116C34.4122 17.1868 35.1243 17.3284 35.8434 17.3284C36.5626 17.3284 37.2747 17.1868 37.9391 16.9116C38.6035 16.6364 39.2072 16.233 39.7157 15.7245C40.2242 15.216 40.6276 14.6123 40.9028 13.9479C41.178 13.2835 41.3196 12.5714 41.3196 11.8522V10.0554C41.3196 8.60306 40.7427 7.21016 39.7157 6.18317C38.6887 5.15618 37.2958 4.57922 35.8434 4.57922C34.391 4.57922 32.9981 5.15618 31.9711 6.18317C30.9441 7.21016 30.3672 8.60306 30.3672 10.0554ZM39.3509 10.0554V11.8522C39.3509 12.7824 38.9813 13.6746 38.3236 14.3324C37.6658 14.9901 36.7736 15.3597 35.8434 15.3597C34.9132 15.3597 34.021 14.9901 33.3633 14.3324C32.7055 13.6746 32.3359 12.7824 32.3359 11.8522V10.0554C32.337 9.12551 32.7068 8.23396 33.3644 7.57639C34.0219 6.91881 34.9135 6.54891 35.8434 6.54783C36.7733 6.54888 37.6649 6.91877 38.3225 7.57635C38.98 8.23393 39.3499 9.1255 39.3509 10.0554Z" fill="#02A68F"/>
<path d="M59.8505 13.7627C61.1535 13.7612 62.4027 13.2429 63.3241 12.3216C64.2455 11.4002 64.7637 10.151 64.7652 8.84801V7.27568C64.7652 5.97219 64.2474 4.72208 63.3257 3.80036C62.404 2.87865 61.1539 2.36084 59.8504 2.36084C58.5469 2.36084 57.2968 2.87865 56.3751 3.80036C55.4534 4.72208 54.9355 5.97219 54.9355 7.27568V8.84801C54.937 10.1511 55.4554 11.4003 56.3768 12.3217C57.2982 13.2431 58.5475 13.7613 59.8505 13.7627ZM56.9044 7.27568C56.9044 6.49433 57.2148 5.74498 57.7673 5.19248C58.3198 4.63998 59.0692 4.32959 59.8505 4.32959C60.6319 4.32959 61.3812 4.63998 61.9337 5.19248C62.4862 5.74498 62.7966 6.49433 62.7966 7.27568V8.84801C62.7966 9.62936 62.4862 10.3787 61.9337 10.9312C61.3812 11.4837 60.6319 11.7941 59.8505 11.7941C59.0692 11.7941 58.3198 11.4837 57.7673 10.9312C57.2148 10.3787 56.9044 9.62936 56.9044 8.84801V7.27568Z" fill="#02A68F"/>
<path d="M66.1789 13.7022C66.1187 13.6962 65.9936 13.6835 62.5415 13.6765H62.5396C62.3663 13.6765 62.1961 13.7222 62.0462 13.809C61.8963 13.8958 61.7719 14.0207 61.6857 14.1709L60.0103 17.0902L58.4295 14.1891C58.3448 14.0337 58.2199 13.9041 58.0678 13.8138C57.9157 13.7235 57.7421 13.6758 57.5652 13.6758H54.3102C52.9661 13.6759 51.6772 14.2098 50.7268 15.1602C49.7764 16.1105 49.2424 17.3995 49.2422 18.7435C49.2422 18.8806 49.2622 28.3937 49.263 28.7968C49.2641 29.6324 49.5966 30.4335 50.1875 31.0243C50.7785 31.6151 51.5796 31.9474 52.4153 31.9483H52.4514C52.8692 31.9437 53.2816 31.8538 53.6634 31.6842L53.8223 38.1149C53.8247 38.2016 53.8386 38.2877 53.8635 38.3708L50.7147 41.5195C50.5945 41.6397 50.5075 41.789 50.4621 41.9527C50.4168 42.1165 50.4146 42.2892 50.4558 42.4541L50.498 42.6248C48.5633 41.2084 46.2373 40.4262 43.8399 40.3858C43.7248 40.3858 43.6085 40.3848 43.4927 40.3858C43.3482 40.3878 43.2043 40.3924 43.0609 40.3985L43.1215 37.7558C43.6497 38.0163 44.2356 38.1378 44.8238 38.1088C45.412 38.0799 45.9831 37.9014 46.4832 37.5904C46.9832 37.2793 47.3957 36.8459 47.6817 36.331C47.9676 35.8162 48.1176 35.237 48.1175 34.648V23.6793C48.2541 22.1959 47.7994 20.7185 46.8524 19.5686C45.9053 18.4187 44.5425 17.6892 43.0605 17.5389C43.0042 17.5331 42.8554 17.5179 38.9169 17.5098H38.915C38.7417 17.5098 38.5715 17.5555 38.4215 17.6423C38.2716 17.7292 38.1472 17.854 38.061 18.0044L36.0219 21.5588L34.0953 18.0231C34.0107 17.8677 33.8858 17.7381 33.7337 17.6477C33.5816 17.5574 33.408 17.5097 33.231 17.5096H29.5112C28.0129 17.5114 26.5764 18.1073 25.5169 19.1667C24.4573 20.2262 23.8612 21.6626 23.8594 23.1609C23.8594 23.3173 23.8822 34.1893 23.8831 34.65C23.8834 35.568 24.2483 36.4482 24.8974 37.0973C25.5466 37.7463 26.4269 38.111 27.3449 38.1111H27.3847C27.9099 38.1052 28.4264 37.9768 28.8932 37.736L29.1628 52.4537C29.165 52.5724 29.1889 52.6896 29.2331 52.7998C28.915 54.8764 29.0481 56.9971 29.6232 59.0177C30.1983 61.0383 31.202 62.9112 32.5659 64.5091C33.9298 66.1069 35.622 67.3922 37.5272 68.2774C39.4324 69.1626 41.506 69.6269 43.6068 69.6388H43.6902C51.5981 69.6388 58.1513 63.233 58.3152 55.3206C58.3174 55.2015 58.3184 55.0828 58.3181 54.9637C58.3134 53.7429 58.1107 52.5309 57.7181 51.375H63.6439C64.1927 51.3769 64.7224 51.1733 65.1286 50.8042C65.5348 50.4351 65.788 49.9273 65.8385 49.3808C65.8406 49.3585 65.842 49.3363 65.8425 49.3141L66.3284 31.6996C66.808 31.9028 67.3306 31.9841 67.8493 31.9362C68.368 31.8884 68.8668 31.7128 69.3011 31.4251C69.7355 31.1375 70.0918 30.7468 70.3383 30.2879C70.5848 29.829 70.7139 29.3162 70.7139 28.7952V19.2032C70.8332 17.8742 70.4241 16.5516 69.5753 15.522C68.7265 14.4924 67.5063 13.8386 66.1789 13.7022ZM56.2208 38.7975L56.4273 40.8842L52.9602 44.3519L52.5015 42.5175L56.2208 38.7975ZM54.3518 45.7443L57.8196 42.2765L59.9061 42.483L56.186 46.2029L54.3518 45.7443ZM30.8219 35.5334L30.8078 34.5665C30.8039 34.308 30.6984 34.0614 30.5143 33.88C30.3301 33.6986 30.0819 33.597 29.8234 33.597H29.816C29.5562 33.5989 29.3077 33.7035 29.1246 33.8879C28.9416 34.0723 28.8389 34.3216 28.8389 34.5814C28.8464 34.9833 28.6959 35.3721 28.4198 35.6642C28.1437 35.9563 27.764 36.1284 27.3623 36.1436C27.3567 36.1439 27.3511 36.1439 27.3455 36.1436C27.1492 36.1436 26.9549 36.105 26.7737 36.0299C26.5924 35.9548 26.4277 35.8447 26.289 35.7058C26.1503 35.567 26.0403 35.4023 25.9653 35.2209C25.8903 35.0396 25.8518 34.8452 25.852 34.649C25.852 34.5357 25.8283 23.3163 25.8283 23.1621C25.8295 22.1856 26.218 21.2495 26.9085 20.5592C27.5991 19.8688 28.5352 19.4805 29.5117 19.4794H32.6469L35.136 24.0476C35.2197 24.2013 35.343 24.3299 35.493 24.4201C35.6431 24.5104 35.8145 24.5589 35.9895 24.5609H36.0008C36.174 24.5609 36.3442 24.5152 36.4942 24.4284C36.6441 24.3415 36.7684 24.2167 36.8547 24.0664L39.4844 19.4809C40.8593 19.4846 42.6286 19.4919 42.883 19.5008C43.8504 19.6045 44.7374 20.0869 45.3503 20.8425C45.9631 21.5982 46.2521 22.5656 46.1539 23.5336C46.1505 23.5666 46.1489 23.5997 46.1489 23.6329V34.65C46.1484 35.0415 45.9944 35.4173 45.72 35.6966C45.4456 35.9759 45.0726 36.1365 44.6812 36.1438C44.2897 36.1512 43.9109 36.0048 43.6262 35.736C43.3415 35.4672 43.1735 35.0975 43.1583 34.7063L43.1572 34.6334C43.1551 34.3723 43.0493 34.1228 42.8632 33.9397C42.677 33.7566 42.4258 33.655 42.1647 33.6571C41.9037 33.6593 41.6541 33.765 41.4711 33.9512C41.288 34.1373 41.1863 34.3885 41.1885 34.6496C41.1885 34.685 41.1885 34.7199 41.19 34.7559L41.2029 35.5455L41.0866 40.6195C39.002 41.0032 37.0251 41.8334 35.2915 43.0531C33.558 44.2729 32.109 45.8533 31.0439 47.6859L30.8219 35.5334ZM56.347 55.2811C56.2051 62.1276 50.5344 67.6702 43.69 67.6702H43.618C40.2824 67.6505 37.0894 66.3149 34.7331 63.9538C32.3768 61.5928 31.0477 58.397 31.0347 55.0614C31.0217 51.7257 32.3259 48.5198 34.6638 46.1404C37.0017 43.7611 40.1842 42.4008 43.5196 42.3551C43.5758 42.3546 43.6325 42.3542 43.6895 42.3541C43.7329 42.3541 43.7767 42.3541 43.8201 42.3541C46.3603 42.4036 48.7799 43.4467 50.5597 45.2597L51.3008 46.0095L42.9946 54.3156C42.81 54.5002 42.7063 54.7506 42.7063 55.0117C42.7063 55.2727 42.81 55.5231 42.9946 55.7078C43.1793 55.8924 43.4296 55.9961 43.6907 55.9961C43.9518 55.9961 44.2022 55.8924 44.3868 55.7078L52.6847 47.41L53.5238 48.2591C55.3135 50.0363 56.329 52.4483 56.3492 54.9703C56.3492 55.0735 56.3492 55.1776 56.347 55.2811ZM68.7501 19.0561C68.7467 19.0891 68.745 19.1222 68.745 19.1554V28.7948C68.7455 29.1056 68.6239 29.4041 68.4065 29.6261C68.1891 29.8481 67.8932 29.976 67.5825 29.982C67.2718 29.9881 66.9711 29.872 66.7452 29.6586C66.5193 29.4453 66.3861 29.1517 66.3744 28.8412L66.3733 28.7785C66.369 28.5203 66.2634 28.274 66.0792 28.0929C65.8951 27.9119 65.6472 27.8104 65.3889 27.8104H65.3807C65.1211 27.8125 64.8727 27.9172 64.6898 28.1016C64.507 28.2859 64.4044 28.5351 64.4044 28.7948C64.4044 28.827 64.4049 28.8592 64.4059 28.8911L64.417 29.5758L63.8755 49.213C63.8656 49.2673 63.8369 49.3163 63.7945 49.3516C63.7521 49.3868 63.6986 49.406 63.6435 49.4058H56.8372C56.6022 48.9881 56.342 48.5852 56.058 48.1992L56.249 48.247C56.4139 48.2883 56.5866 48.2861 56.7504 48.2407C56.9142 48.1953 57.0635 48.1083 57.1837 47.9881L62.7688 42.4032C62.9006 42.2714 62.9923 42.1049 63.0332 41.923C63.074 41.7411 63.0624 41.5513 62.9997 41.3757C62.9369 41.2002 62.8256 41.0461 62.6787 40.9313C62.5317 40.8166 62.3552 40.7459 62.1697 40.7275L58.3526 40.35L57.975 36.5328C57.9566 36.3473 57.886 36.1708 57.7712 36.0239C57.6565 35.8769 57.5023 35.7656 57.3268 35.7029C57.1512 35.6401 56.9615 35.6285 56.7796 35.6694C56.5977 35.7102 56.4311 35.8019 56.2993 35.9338L55.7509 36.4822L55.58 29.5661L55.5672 28.72C55.5633 28.4615 55.4579 28.2149 55.2737 28.0335C55.0895 27.8521 54.8414 27.7505 54.5828 27.7505H54.5752C54.3155 27.7525 54.067 27.8571 53.884 28.0415C53.701 28.2258 53.5983 28.4751 53.5983 28.7349C53.6055 29.0524 53.4883 29.3602 53.2718 29.5926C53.0553 29.825 52.7565 29.9636 52.4393 29.9789H52.415C52.1009 29.9784 51.7999 29.8534 51.5779 29.6312C51.3559 29.409 51.2312 29.1079 51.231 28.7938C51.231 28.6954 51.2102 18.8778 51.2102 18.7429C51.2103 17.921 51.5369 17.1327 52.1181 16.5515C52.6994 15.9703 53.4877 15.6438 54.3096 15.6438H56.9804L59.1238 19.5767C59.2076 19.7304 59.3308 19.859 59.4809 19.9492C59.6309 20.0394 59.8023 20.088 59.9774 20.0899C60.1524 20.0918 60.3248 20.047 60.4768 19.96C60.6288 19.8731 60.7548 19.7472 60.8419 19.5954L63.1081 15.6454C64.2902 15.6485 65.7694 15.6547 66.0023 15.6621C66.8153 15.7515 67.5602 16.1583 68.0748 16.794C68.5895 17.4298 68.8322 18.243 68.7504 19.0568L68.7501 19.0561Z" fill="#02A68F"/>
<path d="M6.95898 7.27568V8.84801C6.95898 10.1515 7.4768 11.4016 8.39851 12.3233C9.32022 13.245 10.5703 13.7629 11.8738 13.7629C13.1773 13.7629 14.4274 13.245 15.3491 12.3233C16.2709 11.4016 16.7887 10.1515 16.7887 8.84801V7.27568C16.7887 5.97219 16.2709 4.72208 15.3491 3.80036C14.4274 2.87865 13.1773 2.36084 11.8738 2.36084C10.5703 2.36084 9.32022 2.87865 8.39851 3.80036C7.4768 4.72208 6.95898 5.97219 6.95898 7.27568ZM14.8199 7.27568V8.84801C14.8199 9.62936 14.5095 10.3787 13.957 10.9312C13.4045 11.4837 12.6552 11.7941 11.8738 11.7941C11.0925 11.7941 10.3431 11.4837 9.79063 10.9312C9.23813 10.3787 8.92773 9.62936 8.92773 8.84801V7.27568C8.92773 6.49433 9.23813 5.74498 9.79063 5.19248C10.3431 4.63998 11.0925 4.32959 11.8738 4.32959C12.6552 4.32959 13.4045 4.63998 13.957 5.19248C14.5095 5.74498 14.8199 6.49433 14.8199 7.27568Z" fill="#02A68F"/>
<path d="M18.2022 13.7022C18.142 13.6962 18.0169 13.6835 14.5647 13.6765H14.5628C14.3896 13.6764 14.2194 13.7221 14.0694 13.809C13.9194 13.8958 13.7951 14.0206 13.7088 14.1709L12.0343 17.0902L10.4535 14.1891C10.3688 14.0337 10.2439 13.9041 10.0918 13.8137C9.93964 13.7234 9.76599 13.6758 9.58908 13.6758H6.33375C4.99007 13.6774 3.70188 14.2119 2.75176 15.162C1.80165 16.1122 1.26719 17.4004 1.26563 18.744C1.26563 18.8812 1.28559 28.3943 1.2863 28.7973C1.28745 29.6329 1.61995 30.434 2.21089 31.0248C2.80182 31.6156 3.60294 31.9479 4.43855 31.9489H4.47469C4.89614 31.9442 5.31211 31.8528 5.69672 31.6804L6.21802 49.319C6.21872 49.3414 6.21998 49.3636 6.22223 49.386C6.27396 49.9314 6.52764 50.4378 6.9335 50.8059C7.33935 51.1739 7.8681 51.3771 8.41598 51.3754H15.6676C16.2164 51.3773 16.746 51.1737 17.1522 50.8047C17.5583 50.4356 17.8116 49.9279 17.8622 49.3815C17.8644 49.3591 17.8658 49.3369 17.8664 49.3145L18.3521 31.7C18.8318 31.9032 19.3543 31.9846 19.873 31.9367C20.3917 31.8888 20.8905 31.7132 21.3248 31.4256C21.7591 31.1379 22.1154 30.7472 22.362 30.2883C22.6085 29.8294 22.7375 29.3166 22.7375 28.7956V19.2033C22.8585 17.8738 22.45 16.5503 21.6007 15.5202C20.7514 14.4902 19.53 13.8369 18.2018 13.7022H18.2022ZM20.7744 19.0568C20.7709 19.0898 20.7692 19.1229 20.7692 19.1561V28.7955C20.7686 29.1056 20.6465 29.4031 20.4291 29.6243C20.2118 29.8454 19.9164 29.9726 19.6064 29.9786C19.2963 29.9846 18.9963 29.8689 18.7705 29.6563C18.5448 29.4437 18.4113 29.1512 18.3987 28.8413L18.3977 28.7795C18.3935 28.5212 18.2879 28.2749 18.1038 28.0938C17.9196 27.9126 17.6716 27.8111 17.4133 27.8111H17.4052C17.1455 27.8132 16.8971 27.9179 16.7143 28.1023C16.5314 28.2866 16.4288 28.5358 16.4288 28.7955C16.4288 28.8273 16.4288 28.8591 16.4302 28.8906L16.4413 29.5764L15.8998 49.2135C15.8899 49.2678 15.8612 49.3169 15.8188 49.3522C15.7764 49.3875 15.7229 49.4067 15.6677 49.4065H8.41641C8.36136 49.4067 8.30799 49.3875 8.26561 49.3524C8.22323 49.3173 8.19453 49.2684 8.18452 49.2142L7.60359 29.5594L7.59094 28.7207C7.58702 28.4622 7.48159 28.2156 7.2974 28.0342C7.11322 27.8528 6.86507 27.7512 6.60656 27.7512H6.59911C6.33931 27.7531 6.0908 27.8577 5.90777 28.0421C5.72475 28.2265 5.62204 28.4758 5.62205 28.7356C5.62924 29.0531 5.51209 29.3609 5.2956 29.5933C5.07911 29.8257 4.78039 29.9643 4.46316 29.9796H4.43869C4.12463 29.9791 3.82359 29.8541 3.60162 29.6319C3.37966 29.4097 3.25491 29.1086 3.25477 28.7945C3.25477 28.6961 3.23409 18.8785 3.23409 18.7436C3.23517 17.922 3.56209 17.1342 4.14314 16.5533C4.72419 15.9723 5.51194 15.6455 6.33361 15.6445H9.0045L11.1478 19.5774C11.2315 19.7311 11.3548 19.8598 11.5049 19.95C11.6549 20.0402 11.8263 20.0888 12.0014 20.0907C12.1765 20.0926 12.3489 20.0478 12.5009 19.9608C12.6529 19.8739 12.779 19.748 12.8661 19.5961L15.1321 15.6461C16.3143 15.6492 17.7937 15.6554 18.0264 15.6628C18.8396 15.7513 19.5848 16.1577 20.0996 16.7933C20.6143 17.429 20.8569 18.2424 20.7744 19.0562V19.0568Z" fill="#02A68F"/>
<path d="M51.3981 49.6547C51.1694 49.7806 51 49.9921 50.9273 50.2428C50.8546 50.4936 50.8844 50.7629 51.0102 50.9916C51.9801 52.7584 52.2779 54.8165 51.8487 56.7857C51.4194 58.7549 50.292 60.5023 48.6748 61.7051C47.0576 62.908 45.0598 63.485 43.0503 63.3296C41.0408 63.1742 39.1554 62.2969 37.7424 60.8597C36.3293 59.4226 35.484 57.5227 35.3626 55.5108C35.2412 53.499 35.8518 51.5112 37.0818 49.9146C38.3118 48.3179 40.078 47.2202 42.0542 46.8243C44.0304 46.4284 46.0831 46.7609 47.8332 47.7605C48.0598 47.8903 48.3286 47.9247 48.5806 47.8563C48.8326 47.7878 49.047 47.6221 49.1768 47.3956C49.3066 47.169 49.341 46.9002 49.2726 46.6482C49.2041 46.3963 49.0384 46.1818 48.8119 46.052C46.6495 44.8165 44.113 44.4053 41.671 44.8942C39.229 45.3832 37.0464 46.7393 35.5264 48.7121C34.0064 50.685 33.2516 53.1412 33.4015 55.6272C33.5514 58.1131 34.5959 60.4609 36.342 62.2367C38.0881 64.0126 40.4178 65.0966 42.9009 65.2886C45.3839 65.4805 47.8526 64.7674 49.8508 63.281C51.8491 61.7946 53.242 59.6352 53.7722 57.2019C54.3024 54.7685 53.9341 52.2254 52.7353 50.0424C52.673 49.9291 52.5889 49.8293 52.488 49.7485C52.387 49.6677 52.2712 49.6076 52.147 49.5716C52.0228 49.5356 51.8928 49.5244 51.7643 49.5386C51.6358 49.5529 51.5113 49.5923 51.3981 49.6547Z" fill="#02A68F"/>
<path d="M43.69 51.1833C42.9327 51.1834 42.1925 51.4079 41.5629 51.8287C40.9333 52.2494 40.4426 52.8473 40.1528 53.5469C39.863 54.2465 39.7872 55.0163 39.9349 55.759C40.0826 56.5017 40.4472 57.1839 40.9827 57.7194C41.5181 58.2549 42.2003 58.6196 42.943 58.7673C43.6856 58.9151 44.4555 58.8393 45.1551 58.5496C45.8547 58.2599 46.4527 57.7692 46.8735 57.1396C47.2942 56.51 47.5188 55.7698 47.5189 55.0126C47.5189 54.7515 47.4152 54.5011 47.2306 54.3165C47.046 54.1319 46.7956 54.0282 46.5345 54.0282C46.2735 54.0282 46.0231 54.1319 45.8385 54.3165C45.6539 54.5011 45.5502 54.7515 45.5502 55.0126C45.5502 55.3804 45.4411 55.7401 45.2367 56.0459C45.0323 56.3518 44.7418 56.5902 44.402 56.731C44.0621 56.8718 43.6881 56.9086 43.3273 56.8369C42.9665 56.7651 42.6351 56.588 42.3749 56.3279C42.1148 56.0678 41.9376 55.7363 41.8658 55.3755C41.7941 55.0147 41.8309 54.6407 41.9716 54.3009C42.1124 53.961 42.3508 53.6705 42.6566 53.4661C42.9625 53.2617 43.3221 53.1525 43.69 53.1525C43.9511 53.1525 44.2014 53.0488 44.386 52.8642C44.5707 52.6796 44.6744 52.4292 44.6744 52.1681C44.6744 51.9071 44.5707 51.6567 44.386 51.4721C44.2014 51.2875 43.9511 51.1838 43.69 51.1838V51.1833Z" fill="#02A68F"/>
</svg>
