<svg width="72" height="72" viewBox="0 0 72 72" fill="none" xmlns="http://www.w3.org/2000/svg">
<path d="M56.8727 40.2071C58.1795 37.7231 58.9569 34.9951 59.1556 32.1954C59.3544 29.3957 58.9701 26.5852 58.0272 23.9415C57.9692 23.7777 57.8621 23.6357 57.7204 23.535C57.5787 23.4343 57.4093 23.3798 57.2355 23.379L51.9596 23.3542L53.1888 20.1223C53.1949 20.1066 53.2004 20.0905 53.2054 20.0744C53.3534 19.5923 53.3996 19.0847 53.3411 18.5839C53.2827 18.083 53.1209 17.5997 52.8659 17.1646C52.611 16.7296 52.2685 16.3522 51.8601 16.0563C51.4517 15.7605 50.9864 15.5527 50.4935 15.4461C50.4594 15.4387 50.4248 15.4334 50.39 15.4304L50.3709 15.4285C49.8847 15.3298 49.3837 15.3297 48.8975 15.4281C48.4114 15.5265 47.9498 15.7215 47.5404 16.0014C47.1062 16.2943 46.7366 16.6729 46.4544 17.114C46.1721 17.5551 45.9832 18.0493 45.8993 18.5662L45.1572 23.3215L43.7706 23.3151V3.65625C43.7706 3.43247 43.6817 3.21786 43.5235 3.05963C43.3653 2.90139 43.1507 2.8125 42.9269 2.8125H33.4284C33.2046 2.8125 32.99 2.90139 32.8317 3.05963C32.6735 3.21786 32.5846 3.43247 32.5846 3.65625V23.2625L31.2056 23.256V13.421C31.2056 13.2953 31.1775 13.1713 31.1235 13.0579L27.2816 5.00006C27.213 4.85619 27.1051 4.73469 26.9703 4.64962C26.8355 4.56456 26.6794 4.51941 26.52 4.51941C26.3606 4.51941 26.2045 4.56456 26.0697 4.64962C25.9349 4.73469 25.827 4.85619 25.7584 5.00006L21.9165 13.0579C21.8624 13.1713 21.8344 13.2953 21.8344 13.421V23.212L19.4386 23.2007H19.4345C19.2689 23.2008 19.1071 23.2495 18.969 23.3408C18.831 23.4322 18.7228 23.5621 18.6581 23.7144C17.6628 26.0553 17.0844 28.5521 16.9492 31.0922C16.9269 31.4588 16.9173 34.5644 16.9152 35.3748L12.9161 45.8504C12.813 46.1203 12.7771 46.4113 12.8115 46.6982C12.8458 46.9851 12.9494 47.2594 13.1133 47.4974C13.2772 47.7354 13.4965 47.93 13.7523 48.0644C14.008 48.1989 14.2927 48.2691 14.5817 48.2691H19.9669V54.3606C19.967 55.1018 20.1158 55.8354 20.4046 56.5181C20.6933 57.2007 21.1161 57.8185 21.6479 58.3348C22.1796 58.8512 22.8096 59.2555 23.5005 59.524C24.1913 59.7925 24.9291 59.9197 25.6699 59.898C26.0408 59.8864 30.6516 59.8662 33.5355 59.8558L35.7222 68.5502C35.7682 68.7324 35.8737 68.894 36.0219 69.0094C36.1701 69.1249 36.3526 69.1875 36.5405 69.1875H56.2223C56.3516 69.1876 56.4792 69.1579 56.5953 69.1007C56.7113 69.0436 56.8127 68.9605 56.8915 68.858C56.9704 68.7554 57.0246 68.6361 57.0499 68.5093C57.0753 68.3824 57.0712 68.2515 57.0379 68.1265C57.0048 68.0024 53.7418 55.6414 54.4645 47.8765C54.6612 45.7629 56.6793 40.6894 56.8727 40.2071ZM47.5641 18.8383C47.6114 18.5483 47.7174 18.2711 47.8758 18.0236C48.0342 17.7761 48.2414 17.5637 48.4849 17.3993C48.7136 17.2423 48.972 17.1338 49.2441 17.0804C49.5163 17.0269 49.7965 17.0297 50.0675 17.0885C50.1017 17.0959 50.1362 17.1011 50.171 17.1042L50.1824 17.1053C50.439 17.1673 50.6804 17.2806 50.892 17.4383C51.1036 17.5961 51.2811 17.7951 51.4138 18.0233C51.5464 18.2515 51.6314 18.5042 51.6637 18.7662C51.696 19.0282 51.675 19.294 51.6017 19.5476L50.1574 23.3445L46.8633 23.329L47.5641 18.8383ZM34.2721 18.907H39.1377C39.3615 18.907 39.5761 18.8181 39.7344 18.6599C39.8926 18.5017 39.9815 18.2871 39.9815 18.0633C39.9815 17.8395 39.8926 17.6249 39.7344 17.4667C39.5761 17.3084 39.3615 17.2195 39.1377 17.2195H34.2721V10.9031H37.537C37.7608 10.9031 37.9754 10.8142 38.1336 10.6559C38.2919 10.4977 38.3807 10.2831 38.3807 10.0593C38.3807 9.83555 38.2919 9.62094 38.1336 9.46271C37.9754 9.30447 37.7608 9.21558 37.537 9.21558H34.2721V4.5H42.0826V23.307L34.2721 23.2703V18.907ZM26.52 7.32417L29.2538 13.0575H23.7863L26.52 7.32417ZM23.5219 14.745H29.5181V23.2481L23.5219 23.22V14.745ZM55.1383 67.5H37.1982L35.011 58.803C34.9651 58.6208 34.8597 58.459 34.7115 58.3434C34.5633 58.2278 34.3808 58.1651 34.1928 58.165H34.1896C33.8612 58.1663 26.1412 58.195 25.6175 58.2113C25.1025 58.226 24.5898 58.1373 24.1097 57.9504C23.6296 57.7635 23.1919 57.4822 22.8224 57.1232C22.4529 56.7642 22.1592 56.3347 21.9585 55.8602C21.7579 55.3857 21.6545 54.8757 21.6544 54.3606V47.4254C21.6544 47.2016 21.5655 46.987 21.4073 46.8287C21.249 46.6705 21.0344 46.5816 20.8106 46.5816H14.5821C14.5666 46.5816 14.5514 46.5778 14.5377 46.5706C14.5241 46.5634 14.5123 46.553 14.5036 46.5403C14.4948 46.5276 14.4893 46.5129 14.4875 46.4976C14.4856 46.4822 14.4875 46.4667 14.4931 46.4522L18.5473 35.8327C18.5836 35.7372 18.6024 35.6359 18.6027 35.5337C18.6063 33.9955 18.618 31.4577 18.6343 31.1892C18.7487 29.03 19.2098 26.9033 19.9999 24.8906L22.4415 24.9022C22.593 24.947 22.7543 24.9477 22.9062 24.9043L56.6237 25.0627C57.3838 27.4261 57.6633 29.9176 57.446 32.3906C57.2286 34.8637 56.5187 37.2682 55.3581 39.4627C55.3456 39.4868 55.3342 39.5115 55.324 39.5367C55.2297 39.7695 53.0135 45.2647 52.785 47.7195C52.1522 54.5091 54.3466 64.2756 55.1383 67.5Z" fill="#02A68F"/>
<path d="M48.5773 8.26566C48.3212 8.60323 48.087 8.95688 47.8763 9.32443C47.1792 10.5685 47.1525 12.0696 47.8059 13.242C48.8817 15.1702 51.2653 15.5526 52.5897 15.6088C52.6628 15.6119 52.7354 15.6135 52.8076 15.6135C53.5599 15.6201 54.3033 15.449 54.977 15.114C55.6507 14.779 56.2358 14.2896 56.6846 13.6856C57.7048 12.3234 57.9554 10.5497 57.3725 8.8179C56.8905 7.23756 55.8598 5.96251 54.3089 5.02609C53.2031 4.37687 51.9867 3.93821 50.7211 3.73234C49.4327 3.52252 49.053 3.67398 48.8028 4.0268C48.7113 4.158 48.658 4.31196 48.6486 4.47162C48.6392 4.63129 48.6742 4.79044 48.7497 4.93145C48.8054 5.02739 48.8678 5.11927 48.9366 5.20637C49.1589 5.50421 49.5728 6.05855 49.4894 6.60376C49.4116 7.1131 48.9873 7.69909 48.5773 8.26566ZM49.9441 9.2551C50.4474 8.55985 51.018 7.77179 51.1576 6.85843C51.2232 6.40864 51.1794 5.94964 51.0299 5.52038C52.6018 5.89655 55.0307 6.90681 55.7614 9.32007C55.764 9.32879 55.7669 9.33765 55.7698 9.34637C56.1776 10.5476 56.0182 11.7605 55.3339 12.674C55.0256 13.0861 54.6203 13.4157 54.1541 13.6336C53.6878 13.8515 53.1749 13.9508 52.661 13.9229C50.9817 13.8514 49.7809 13.3182 49.28 12.4197C48.9096 11.7557 48.9357 10.8856 49.3551 10.137C49.5332 9.83122 49.7299 9.53672 49.9441 9.2551Z" fill="#02A68F"/>
</svg>
