<svg width="72" height="72" viewBox="0 0 72 72" fill="none" xmlns="http://www.w3.org/2000/svg">
<g clip-path="url(#clip0)">
<path d="M26.1636 48.2209V64.2121H14.0361C11.2444 64.2157 8.98243 66.4783 8.97826 69.27C8.97826 69.7759 9.38823 70.1853 9.89354 70.1853H38.9996C45.5746 73.4096 53.454 72.2691 58.8456 67.3137C64.2372 62.3583 66.0356 54.6023 63.3761 47.7794C60.7167 40.9565 54.1435 36.4647 46.8206 36.4653C46.189 36.4653 45.5579 36.4986 44.9299 36.5654C46.0007 34.1133 46.5465 31.4646 46.5316 28.7897C46.5316 28.2844 46.1222 27.8744 45.6163 27.8744C45.111 27.8744 44.701 28.2844 44.701 28.7897C44.701 31.7387 44.0086 34.5525 42.7001 36.9468C37.7286 38.1528 33.5085 41.4254 31.1041 45.9405C29.7836 46.2438 28.4334 46.4029 27.0789 46.4136C17.3499 46.4023 9.46629 38.5181 9.45556 28.7897C9.45556 28.2844 9.04619 27.8744 8.54028 27.8744C8.03497 27.8744 7.625 28.2844 7.625 28.7897C7.625 39.2093 15.8601 47.7418 26.1636 48.2209ZM27.9942 48.2173C28.7283 48.1786 29.4595 48.1 30.1853 47.9802C28.1575 53.3855 28.8815 59.4385 32.1267 64.2121H27.9942V48.2173ZM10.9411 68.3547C11.3487 66.9848 12.6072 66.0445 14.0367 66.0427H33.5574C34.313 66.8906 35.1478 67.6647 36.05 68.3547H10.9411ZM43.495 38.6432C50.0992 37.2328 56.8756 40.1371 60.4086 45.8928C63.9416 51.6485 63.4643 59.0059 59.2168 64.2562C54.97 69.5072 47.8747 71.5111 41.5083 69.2593C35.1412 67.0068 30.8848 60.9872 30.8842 54.2334C30.8765 51.7766 31.4432 49.3519 32.5384 47.1525C32.5414 47.1459 32.545 47.14 32.5479 47.134C34.7259 42.7954 38.7499 39.6741 43.4944 38.6432H43.495Z" fill="#02A68F"/>
<path d="M26.8588 40.298H27.2997C33.5309 40.2909 38.5811 35.2413 38.5882 29.0095V11.2885C38.5811 5.05669 33.5309 0.00715064 27.2997 0H26.8588C20.6276 0.00715064 15.5775 5.05669 15.5703 11.2885V29.0095C15.5775 35.2413 20.6276 40.2915 26.8588 40.298ZM17.4009 28.2182H22.0476C22.5529 28.2182 22.9629 27.8082 22.9629 27.3029C22.9629 26.7976 22.5529 26.3876 22.0476 26.3876H17.4009V24.5106H22.0476C22.5529 24.5106 22.9629 24.1006 22.9629 23.5953C22.9629 23.09 22.5529 22.68 22.0476 22.68H17.4009V20.8036H22.0476C22.5529 20.8036 22.9629 20.3942 22.9629 19.8883C22.9629 19.383 22.5529 18.973 22.0476 18.973H17.4009V17.0954H22.0476C22.5529 17.0954 22.9629 16.6854 22.9629 16.1801C22.9629 15.6742 22.5529 15.2648 22.0476 15.2648H17.4009V11.2885C17.4068 6.06731 21.6382 1.83652 26.8588 1.83056H27.2997C32.5209 1.83652 36.7517 6.06731 36.7577 11.2885V15.2648H32.1109C31.6056 15.2648 31.1956 15.6742 31.1956 16.1801C31.1956 16.6854 31.6056 17.0954 32.1109 17.0954H36.7577V18.9724H32.1109C31.6056 18.9724 31.1956 19.3824 31.1956 19.8877C31.1956 20.393 31.6056 20.803 32.1109 20.803H36.7577V22.6794H32.1109C31.6056 22.6794 31.1956 23.0888 31.1956 23.5947C31.1956 24.1 31.6056 24.51 32.1109 24.51H36.7577V26.387H32.1109C31.6056 26.387 31.1956 26.797 31.1956 27.3023C31.1956 27.8076 31.6056 28.2176 32.1109 28.2176H36.7577V29.0089C36.7517 34.2301 32.5203 38.4609 27.2997 38.4668H26.8588C21.6376 38.4609 17.4068 34.2301 17.4009 29.0089V28.2182Z" fill="#02A68F"/>
<path d="M37.6692 55.1487H45.9067V63.3862C45.9067 63.8921 46.3167 64.3015 46.822 64.3015C47.3273 64.3015 47.7373 63.8921 47.7373 63.3862V55.1487H55.9748C56.4801 55.1487 56.8901 54.7393 56.8901 54.2334C56.8901 53.7281 56.4801 53.3181 55.9748 53.3181H47.7373V45.0806C47.7373 44.5753 47.3273 44.1653 46.822 44.1653C46.3167 44.1653 45.9067 44.5753 45.9067 45.0806V53.3181H37.6692C37.1639 53.3181 36.7539 53.7281 36.7539 54.2334C36.7539 54.7393 37.1639 55.1487 37.6692 55.1487Z" fill="#02A68F"/>
</g>
<defs>
<clipPath id="clip0">
<rect width="72" height="72" fill="white"/>
</clipPath>
</defs>
</svg>
