<svg width="76" height="76" viewBox="0 0 76 76" fill="none" xmlns="http://www.w3.org/2000/svg">
<path d="M37.6995 23.7252C35.4749 23.7277 33.3421 24.6126 31.7691 26.1856C30.196 27.7586 29.3111 29.8913 29.3086 32.1159V35.8661C29.3179 38.0853 30.2061 40.2105 31.7786 41.7765C33.3512 43.3425 35.4801 44.2217 37.6994 44.2217C39.9187 44.2217 42.0476 43.3425 43.6202 41.7765C45.1927 40.2105 46.0809 38.0853 46.0902 35.8661V32.1159C46.0877 29.8914 45.2029 27.7586 43.6298 26.1856C42.0568 24.6126 39.9241 23.7277 37.6995 23.7252ZM44.3089 35.8661C44.3007 37.6136 43.6007 39.2867 42.362 40.5195C41.1234 41.7523 39.447 42.4444 37.6994 42.4444C35.9518 42.4444 34.2754 41.7523 33.0368 40.5195C31.7981 39.2867 31.0981 37.6136 31.0898 35.8661V32.1159C31.0981 30.3684 31.7981 28.6953 33.0368 27.4625C34.2754 26.2297 35.9518 25.5376 37.6994 25.5376C39.447 25.5376 41.1234 26.2297 42.362 27.4625C43.6007 28.6953 44.3007 30.3684 44.3089 32.1159V35.8661Z" fill="#02A68F"/>
<path d="M23.7767 67.6958H51.6244C51.8606 67.6958 52.0872 67.602 52.2542 67.435C52.4212 67.2679 52.515 67.0414 52.515 66.8052V63.9457H71.8268C72.063 63.9457 72.2895 63.8518 72.4565 63.6848C72.6236 63.5178 72.7174 63.2913 72.7174 63.0551V55.6685C72.7159 53.5634 71.9131 51.5378 70.472 50.0033C69.0309 48.4688 67.0596 47.5405 64.9587 47.4071C64.4837 47.3719 64.2475 47.6606 63.9974 47.9658C63.4701 48.6102 62.8027 49.1256 62.046 49.4729C61.2893 49.8202 60.4633 49.9902 59.6309 49.9698C58.7985 49.9495 57.9818 49.7393 57.243 49.3554C56.5042 48.9716 55.8627 48.4241 55.3676 47.7547C55.2825 47.6397 55.171 47.5468 55.0424 47.4839C54.9139 47.4211 54.7721 47.3901 54.6291 47.3936C53.1215 47.427 51.6524 47.8762 50.3838 48.6915C49.5706 47.7006 48.5617 46.8882 47.4201 46.3052C46.2785 45.7221 45.0289 45.381 43.7494 45.3031C43.2834 45.2774 43.0608 45.5516 42.7777 45.8969C42.1631 46.648 41.3851 47.2488 40.5031 47.6536C39.621 48.0585 38.6582 48.2565 37.688 48.2328C36.7177 48.2091 35.7657 47.9641 34.9045 47.5167C34.0433 47.0692 33.2957 46.431 32.7185 45.6508C32.633 45.5362 32.5214 45.4437 32.393 45.3809C32.2645 45.3181 32.123 45.2868 31.9801 45.2896C29.5489 45.3459 27.2371 46.3543 25.5419 48.0979C25.352 48.2923 25.1732 48.4947 25.0025 48.7023C23.8183 47.9395 22.4581 47.4936 21.0522 47.4074C20.5772 47.3722 20.3412 47.6609 20.091 47.9661C19.5637 48.6104 18.8963 49.1259 18.1396 49.4732C17.3829 49.8205 16.5568 49.9905 15.7245 49.9701C14.8922 49.9497 14.0754 49.7396 13.3366 49.3557C12.5978 48.9719 11.9564 48.4244 11.4612 47.755C11.376 47.6401 11.2645 47.5473 11.1359 47.4844C11.0074 47.4216 10.8657 47.3905 10.7226 47.3939C8.56438 47.4489 6.513 48.3447 5.0058 49.8905C3.49859 51.4362 2.6548 53.5096 2.6543 55.6685V63.0551C2.6543 63.2913 2.74813 63.5178 2.91516 63.6848C3.08218 63.8518 3.30871 63.9457 3.54492 63.9457H22.8863V66.8052C22.8863 67.0413 22.9801 67.2678 23.1471 67.4348C23.314 67.6019 23.5405 67.6957 23.7767 67.6958ZM54.2394 49.1992C54.9184 49.9974 55.7622 50.6391 56.713 51.0799C57.6637 51.5207 58.6987 51.7502 59.7466 51.7526C60.7946 51.755 61.8306 51.5302 62.7833 51.0937C63.736 50.6572 64.5828 50.0194 65.2654 49.2242C66.8318 49.4268 68.2711 50.1924 69.3144 51.3783C70.3578 52.5641 70.9341 54.089 70.9357 55.6685V62.1644H52.5146V54.6162C52.5153 53.0617 52.1253 51.532 51.3805 50.1676C52.2427 49.6216 53.2229 49.2896 54.2394 49.1992ZM31.5879 47.0934C32.3516 48.0061 33.3058 48.7406 34.3835 49.2454C35.4613 49.7502 36.6364 50.0131 37.8265 50.0156C39.0165 50.0181 40.1927 49.7602 41.2726 49.2599C42.3524 48.7596 43.3097 48.0292 44.0773 47.1197C45.9111 47.34 47.6009 48.2241 48.8273 49.6052C50.0538 50.9863 50.732 52.7687 50.7339 54.6158V65.9141H24.6673V54.6162C24.6678 52.7231 25.3794 50.8991 26.6611 49.5058C27.9428 48.1126 29.7012 47.2515 31.5877 47.0934H31.5879ZM4.43555 62.1644V55.6685C4.43602 54.0491 5.04105 52.4883 6.13212 51.2917C7.2232 50.095 8.72171 49.3489 10.3342 49.1993C11.0131 49.9975 11.857 50.6392 12.8077 51.0799C13.7584 51.5207 14.7934 51.7502 15.8413 51.7526C16.8892 51.755 17.9252 51.5302 18.8779 51.0937C19.8306 50.6573 20.6774 50.0195 21.3599 49.2244C22.3019 49.3441 23.206 49.67 24.0076 50.179C23.2693 51.5413 22.8838 53.0667 22.886 54.6162V62.1644H4.43555Z" fill="#02A68F"/>
<path d="M66.6338 39.238V35.9556C66.6338 34.9765 66.4409 34.007 66.0663 33.1024C65.6916 32.1979 65.1424 31.376 64.4501 30.6837C63.7578 29.9914 62.9359 29.4422 62.0313 29.0675C61.1268 28.6928 60.1573 28.5 59.1782 28.5C58.1991 28.5 57.2297 28.6928 56.3251 29.0675C55.4206 29.4422 54.5987 29.9914 53.9063 30.6837C53.214 31.376 52.6649 32.1979 52.2902 33.1024C51.9155 34.007 51.7227 34.9765 51.7227 35.9556V39.238C51.7227 41.2153 52.5082 43.1117 53.9063 44.5099C55.3045 45.908 57.2009 46.6935 59.1782 46.6935C61.1556 46.6935 63.0519 45.908 64.4501 44.5099C65.8483 43.1117 66.6338 41.2153 66.6338 39.238ZM53.5039 39.238V35.9556C53.5039 34.4506 54.1017 33.0074 55.1659 31.9432C56.23 30.8791 57.6733 30.2812 59.1782 30.2812C60.6831 30.2812 62.1264 30.8791 63.1906 31.9432C64.2547 33.0074 64.8525 34.4506 64.8525 35.9556V39.238C64.8508 40.7424 64.2525 42.1847 63.1887 43.2485C62.1249 44.3122 60.6826 44.9106 59.1782 44.9123C57.6738 44.9106 56.2315 44.3123 55.1676 43.2485C54.1038 42.1847 53.5054 40.7424 53.5038 39.238H53.5039Z" fill="#02A68F"/>
<path d="M23.1885 39.2562V35.9738C23.1885 33.9964 22.403 32.1001 21.0048 30.7019C19.6066 29.3037 17.7103 28.5182 15.7329 28.5182C13.7556 28.5182 11.8592 29.3037 10.461 30.7019C9.06284 32.1001 8.27734 33.9964 8.27734 35.9738V39.2562C8.27734 41.2335 9.06284 43.1298 10.461 44.528C11.8592 45.9262 13.7556 46.7117 15.7329 46.7117C17.7103 46.7117 19.6066 45.9262 21.0048 44.528C22.403 43.1298 23.1885 41.2335 23.1885 39.2562ZM10.0586 39.2562V35.9738C10.0586 34.4688 10.6564 33.0255 11.7206 31.9614C12.7847 30.8973 14.228 30.2994 15.7329 30.2994C17.2378 30.2994 18.6811 30.8973 19.7453 31.9614C20.8094 33.0255 21.4072 34.4688 21.4072 35.9738V39.2562C21.4055 40.7606 20.8072 42.2029 19.7434 43.2666C18.6796 44.3304 17.2373 44.9288 15.7329 44.9305C14.2285 44.9288 12.7862 44.3304 11.7224 43.2666C10.6587 42.2029 10.0603 40.7606 10.0586 39.2562Z" fill="#02A68F"/>
<path d="M73.9403 22.5009V13.2235C73.9392 12.3129 73.577 11.4399 72.9331 10.7959C72.2892 10.152 71.4162 9.78984 70.5056 9.78882H47.1847C46.2741 9.78984 45.401 10.152 44.7571 10.7959C44.1132 11.4399 43.751 12.3129 43.75 13.2235V22.5009C43.751 23.4115 44.1132 24.2845 44.7571 24.9284C45.401 25.5723 46.2741 25.9345 47.1847 25.9356L48.2193 25.9378C48.8179 29.261 51.0025 30.3315 51.5591 30.5526C51.7258 30.6379 51.915 30.669 52.1002 30.6416C52.2821 30.6135 52.4515 30.5318 52.5868 30.407C52.7222 30.2823 52.8173 30.12 52.8601 29.941C52.9228 29.6707 52.9625 29.3955 52.9788 29.1185C53.1718 27.0537 53.6123 25.9348 55.3847 25.9348H70.5056C71.4161 25.9338 72.289 25.5717 72.9329 24.9279C73.5768 24.2842 73.939 23.4114 73.9403 22.5009ZM72.159 22.5009C72.1585 22.9392 71.9841 23.3595 71.6742 23.6695C71.3642 23.9794 70.9439 24.1538 70.5056 24.1543H55.3839C52.194 24.1543 51.4932 26.703 51.2805 28.2625C50.7742 27.7726 50.2063 26.9461 49.9682 25.5992C49.8935 25.1911 49.6772 24.8224 49.3573 24.5581C49.0375 24.2938 48.6347 24.1508 48.2197 24.1543H47.1847C46.7463 24.1538 46.3261 23.9794 46.0161 23.6695C45.7061 23.3595 45.5318 22.9392 45.5312 22.5009V13.2235C45.5318 12.7851 45.7061 12.3649 46.0161 12.0549C46.3261 11.7449 46.7463 11.5706 47.1847 11.5701H70.5056C70.9439 11.5706 71.3642 11.7449 71.6742 12.0549C71.9841 12.3649 72.1585 12.7851 72.159 13.2235V22.5009Z" fill="#02A68F"/>
<path d="M28.8161 8.3042H5.49524C4.58462 8.30522 3.71158 8.66742 3.06767 9.31133C2.42377 9.95524 2.06157 10.8283 2.06055 11.7389V22.5006C2.06157 23.4112 2.42377 24.2843 3.06767 24.9282C3.71158 25.5721 4.58462 25.9343 5.49524 25.9353L20.7799 25.9375C21.3785 29.2603 23.5625 30.3313 24.1197 30.5522C24.2863 30.6378 24.4755 30.6693 24.6609 30.6421C24.8428 30.614 25.0123 30.5324 25.1477 30.4076C25.283 30.2828 25.3781 30.1206 25.4209 29.9415C25.514 29.609 25.4871 29.215 25.453 28.7166C25.3985 27.9217 25.3241 26.8334 25.8005 26.3233C26.0409 26.0659 26.4628 25.9353 27.0543 25.9353H28.8166C29.7272 25.9343 30.6002 25.5721 31.2441 24.9282C31.888 24.2843 32.2502 23.4112 32.2512 22.5006V11.7389C32.2502 10.8282 31.888 9.95509 31.244 9.31117C30.6 8.66725 29.7268 8.3051 28.8161 8.3042ZM30.4696 22.5009C30.469 22.9393 30.2947 23.3595 29.9847 23.6695C29.6747 23.9795 29.2545 24.1538 28.8161 24.1544H27.0539C25.9489 24.1544 25.0891 24.4751 24.4982 25.1078C23.7202 25.9408 23.6104 27.0869 23.634 28.0526C23.1878 27.5491 22.7361 26.7725 22.5289 25.5992C22.4542 25.1911 22.2378 24.8225 21.918 24.5581C21.5982 24.2938 21.1953 24.1509 20.7804 24.1544H5.49524C5.05688 24.1538 4.63661 23.9795 4.32664 23.6695C4.01667 23.3595 3.84231 22.9393 3.8418 22.5009V11.7392C3.84223 11.3008 4.01656 10.8804 4.32654 10.5704C4.63652 10.2604 5.05683 10.086 5.49524 10.0854H28.8161C29.2545 10.086 29.6747 10.2603 29.9847 10.5703C30.2947 10.8803 30.469 11.3005 30.4696 11.7389V22.5009Z" fill="#02A68F"/>
</svg>
