<svg width="72" height="72" viewBox="0 0 72 72" fill="none" xmlns="http://www.w3.org/2000/svg">
<path d="M39.8066 6.19729C39.9735 6.19731 40.1366 6.14783 40.2754 6.05512C40.4142 5.96241 40.5223 5.83063 40.5862 5.67644C40.6501 5.52225 40.6668 5.35259 40.6342 5.1889C40.6017 5.02522 40.5213 4.87486 40.4033 4.75686L36.5966 0.950286C36.4383 0.792107 36.2238 0.703247 36 0.703247C35.7763 0.703247 35.5617 0.792107 35.4035 0.950286L31.5968 4.75686C31.4385 4.91509 31.3496 5.1297 31.3496 5.35349C31.3496 5.57727 31.4385 5.79189 31.5967 5.95014C31.7549 6.10838 31.9695 6.19729 32.1933 6.19731C32.4171 6.19732 32.6317 6.10844 32.79 5.95021L35.0217 3.71849V10.8331C35.0217 11.0569 35.1106 11.2715 35.2688 11.4298C35.4271 11.588 35.6417 11.6769 35.8654 11.6769C36.0892 11.6769 36.3038 11.588 36.4621 11.4298C36.6203 11.2715 36.7092 11.0569 36.7092 10.8331V3.56563C36.7089 3.52324 36.7054 3.48093 36.6986 3.43907L39.2101 5.95049C39.2884 6.02888 39.3814 6.09104 39.4837 6.13339C39.5861 6.17574 39.6958 6.19746 39.8066 6.19729Z" fill="#02A68F"/>
<path d="M31.5968 66.0499C31.5184 66.1283 31.4563 66.2213 31.4138 66.3237C31.3714 66.426 31.3496 66.5358 31.3496 66.6466C31.3496 66.7574 31.3714 66.8671 31.4138 66.9695C31.4563 67.0719 31.5184 67.1649 31.5968 67.2433L35.4035 71.0498C35.5617 71.208 35.7763 71.2969 36 71.2969C36.2238 71.2969 36.4384 71.208 36.5966 71.0498L40.4033 67.2433C40.5616 67.085 40.6505 66.8704 40.6505 66.6466C40.6505 66.4229 40.5616 66.2082 40.4034 66.05C40.2451 65.8917 40.0305 65.8028 39.8067 65.8028C39.583 65.8028 39.3683 65.8917 39.2101 66.0499L36.9784 68.2816V61.167C36.9784 60.9432 36.8895 60.7286 36.7312 60.5704C36.573 60.4121 36.3584 60.3232 36.1346 60.3232C35.9108 60.3232 35.6962 60.4121 35.538 60.5704C35.3798 60.7286 35.2909 60.9432 35.2909 61.167V68.4345C35.2912 68.4769 35.2947 68.5192 35.3014 68.5611L32.79 66.0496C32.6317 65.8914 32.4171 65.8026 32.1933 65.8027C31.9696 65.8027 31.755 65.8917 31.5968 66.0499Z" fill="#02A68F"/>
<path d="M5.35341 40.6503C5.52031 40.6503 5.68346 40.6008 5.82223 40.5081C5.961 40.4154 6.06916 40.2836 6.13303 40.1294C6.1969 39.9753 6.21361 39.8056 6.18105 39.6419C6.14848 39.4782 6.06811 39.3279 5.95009 39.2099L3.71837 36.9783H10.833C11.0568 36.9783 11.2714 36.8894 11.4296 36.7312C11.5879 36.5729 11.6768 36.3583 11.6768 36.1345C11.6768 35.9108 11.5879 35.6962 11.4296 35.5379C11.2714 35.3797 11.0568 35.2908 10.833 35.2908H3.56551C3.52311 35.2911 3.48081 35.2946 3.43894 35.3013L5.95037 32.7901C6.02872 32.7117 6.09088 32.6187 6.13329 32.5163C6.1757 32.414 6.19753 32.3042 6.19754 32.1934C6.19754 32.0826 6.17572 31.9729 6.13333 31.8705C6.09093 31.7682 6.02878 31.6751 5.95044 31.5968C5.87209 31.5184 5.77908 31.4563 5.67671 31.4139C5.57434 31.3714 5.46462 31.3496 5.35381 31.3496C5.24301 31.3496 5.13329 31.3714 5.03091 31.4138C4.92854 31.4562 4.83552 31.5184 4.75716 31.5967L0.950304 35.4033C0.87194 35.4816 0.809777 35.5747 0.767365 35.677C0.724954 35.7794 0.703125 35.8891 0.703125 36C0.703125 36.1108 0.724954 36.2205 0.767365 36.3229C0.809777 36.4253 0.87194 36.5183 0.950304 36.5966L4.75688 40.4032C4.83514 40.4817 4.92813 40.5439 5.0305 40.5863C5.13287 40.6287 5.24261 40.6504 5.35341 40.6503Z" fill="#02A68F"/>
<path d="M71.0507 35.4033L67.2441 31.5967C67.1657 31.5184 67.0727 31.4562 66.9703 31.4138C66.868 31.3714 66.7582 31.3496 66.6474 31.3496C66.5366 31.3496 66.4269 31.3714 66.3245 31.4139C66.2222 31.4563 66.1292 31.5184 66.0508 31.5968C65.9725 31.6751 65.9103 31.7682 65.8679 31.8705C65.8255 31.9729 65.8037 32.0826 65.8037 32.1934C65.8037 32.3042 65.8256 32.414 65.868 32.5163C65.9104 32.6187 65.9725 32.7117 66.0509 32.7901L68.2826 35.0216H61.168C60.9442 35.0216 60.7296 35.1105 60.5713 35.2688C60.4131 35.427 60.3242 35.6416 60.3242 35.8654C60.3242 36.0892 60.4131 36.3038 60.5713 36.462C60.7296 36.6202 60.9442 36.7091 61.168 36.7091H68.4355C68.4779 36.7088 68.5202 36.7053 68.562 36.6986L66.0506 39.2099C65.9723 39.2882 65.9101 39.3812 65.8677 39.4836C65.8253 39.586 65.8034 39.6957 65.8034 39.8065C65.8034 39.9173 65.8253 40.027 65.8676 40.1294C65.91 40.2318 65.9722 40.3248 66.0505 40.4031C66.1289 40.4815 66.2219 40.5437 66.3243 40.5861C66.4266 40.6285 66.5364 40.6503 66.6472 40.6503C66.758 40.6503 66.8677 40.6285 66.9701 40.5861C67.0724 40.5437 67.1655 40.4816 67.2438 40.4032L71.0504 36.5966C71.1288 36.5183 71.1909 36.4253 71.2333 36.3229C71.2757 36.2205 71.2976 36.1108 71.2976 36C71.2976 35.8891 71.2757 35.7794 71.2333 35.677C71.1909 35.5747 71.1288 35.4816 71.0504 35.4033H71.0507Z" fill="#02A68F"/>
<path d="M17.8657 11.6379C17.8657 11.4142 17.7768 11.1996 17.6186 11.0413C17.4603 10.8831 17.2457 10.7942 17.0219 10.7942H11.6387C11.4149 10.7942 11.2003 10.8831 11.042 11.0413C10.8838 11.1996 10.7949 11.4142 10.7949 11.6379V17.0212C10.7949 17.245 10.8838 17.4596 11.042 17.6178C11.2003 17.7761 11.4149 17.865 11.6387 17.865C11.8624 17.865 12.0771 17.7761 12.2353 17.6178C12.3935 17.4596 12.4824 17.245 12.4824 17.0212V13.8656L17.5133 18.8964C17.672 19.0525 17.8859 19.1396 18.1085 19.1387C18.331 19.1378 18.5443 19.049 18.7016 18.8916C18.859 18.7342 18.9479 18.521 18.9488 18.2984C18.9497 18.0758 18.8626 17.8619 18.7065 17.7032L13.5676 12.564C13.5362 12.534 13.5026 12.5065 13.4669 12.4817H17.0219C17.2457 12.4817 17.4603 12.3928 17.6186 12.2346C17.7768 12.0763 17.8657 11.8617 17.8657 11.6379Z" fill="#02A68F"/>
<path d="M54.1358 60.362C54.1358 60.5858 54.2247 60.8004 54.3829 60.9586C54.5412 61.1168 54.7558 61.2057 54.9796 61.2057H60.3628C60.5866 61.2057 60.8012 61.1168 60.9595 60.9586C61.1177 60.8004 61.2066 60.5858 61.2066 60.362V54.9787C61.2066 54.755 61.1177 54.5403 60.9595 54.3821C60.8012 54.2239 60.5866 54.135 60.3628 54.135C60.1391 54.135 59.9244 54.2239 59.7662 54.3821C59.608 54.5403 59.5191 54.755 59.5191 54.9787V58.1343L54.4882 53.1035C54.3296 52.9474 54.1156 52.8603 53.893 52.8612C53.6705 52.8621 53.4573 52.9509 53.2999 53.1083C53.1425 53.2657 53.0536 53.4789 53.0527 53.7015C53.0518 53.9241 53.1389 54.138 53.295 54.2967L58.4339 59.4356C58.4653 59.4655 58.4989 59.493 58.5346 59.5178H54.9796C54.8687 59.5178 54.759 59.5397 54.6566 59.5821C54.5542 59.6245 54.4612 59.6867 54.3828 59.7651C54.3044 59.8435 54.2423 59.9365 54.1999 60.039C54.1575 60.1414 54.1358 60.2511 54.1358 60.362Z" fill="#02A68F"/>
<path d="M61.2059 17.0212V11.6379C61.2059 11.4142 61.117 11.1996 60.9588 11.0413C60.8005 10.8831 60.5859 10.7942 60.3621 10.7942H54.9789C54.7551 10.7942 54.5405 10.8831 54.3823 11.0413C54.224 11.1996 54.1351 11.4142 54.1351 11.6379C54.1351 11.8617 54.224 12.0763 54.3823 12.2346C54.5405 12.3928 54.7551 12.4817 54.9789 12.4817H58.1345L53.1036 17.5124C53.0242 17.5905 52.9611 17.6836 52.9178 17.7862C52.8746 17.8888 52.852 17.999 52.8516 18.1104C52.8511 18.2218 52.8727 18.3322 52.9151 18.4351C52.9575 18.5381 53.0199 18.6317 53.0986 18.7105C53.1774 18.7893 53.2709 18.8517 53.3739 18.8941C53.4769 18.9365 53.5873 18.9581 53.6986 18.9577C53.81 18.9572 53.9202 18.9348 54.0229 18.8915C54.1255 18.8483 54.2186 18.7851 54.2967 18.7058L59.4357 13.5669C59.4657 13.5355 59.4932 13.5018 59.518 13.4662V17.0212C59.518 17.245 59.6069 17.4596 59.7651 17.6178C59.9233 17.7761 60.1379 17.865 60.3617 17.865C60.5855 17.865 60.8001 17.7761 60.9583 17.6178C61.1166 17.4596 61.2055 17.245 61.2055 17.0212H61.2059Z" fill="#02A68F"/>
<path d="M18.8969 53.2942C18.7387 53.136 18.5241 53.0471 18.3003 53.0471C18.0765 53.0471 17.8619 53.136 17.7037 53.2942L12.5647 58.4331C12.5347 58.4645 12.5072 58.4981 12.4824 58.5338V54.9788C12.4824 54.755 12.3935 54.5404 12.2353 54.3822C12.0771 54.2239 11.8624 54.135 11.6387 54.135C11.4149 54.135 11.2003 54.2239 11.042 54.3822C10.8838 54.5404 10.7949 54.755 10.7949 54.9788V60.362C10.7949 60.5858 10.8838 60.8004 11.042 60.9587C11.2003 61.1169 11.4149 61.2058 11.6387 61.2058H17.0219C17.2457 61.2058 17.4603 61.1169 17.6186 60.9587C17.7768 60.8004 17.8657 60.5858 17.8657 60.362C17.8657 60.1383 17.7768 59.9237 17.6186 59.7654C17.4603 59.6072 17.2457 59.5183 17.0219 59.5183H13.8663L18.8972 54.4876C18.9755 54.4092 19.0377 54.3162 19.08 54.2138C19.1224 54.1114 19.1442 54.0017 19.1442 53.8908C19.1442 53.78 19.1223 53.6703 19.0799 53.5679C19.0375 53.4656 18.9753 53.3726 18.8969 53.2942Z" fill="#02A68F"/>
<path d="M49.5322 49.7408C49.756 49.7408 49.9706 49.6519 50.1288 49.4937C50.2871 49.3354 50.376 49.1208 50.376 48.897V39.4818H50.5091C51.3024 39.4856 52.0886 39.3327 52.8226 39.0317C53.5566 38.7308 54.2239 38.2878 54.7862 37.7283C55.3485 37.1687 55.7947 36.5035 56.0992 35.771C56.4036 35.0385 56.5604 34.253 56.5604 33.4597C56.5604 32.6664 56.4036 31.881 56.0992 31.1484C55.7947 30.4159 55.3485 29.7507 54.7862 29.1911C54.2239 28.6316 53.5566 28.1886 52.8226 27.8877C52.0886 27.5868 51.3024 27.4338 50.5091 27.4377H50.376V18.5109C50.376 18.373 50.3422 18.2372 50.2775 18.1154C50.2129 17.9936 50.1194 17.8895 50.0052 17.8122C49.891 17.7349 49.7596 17.6867 49.6225 17.672C49.4854 17.6572 49.3468 17.6763 49.2188 17.7275L29.8287 25.4835H20.2208C18.9609 25.4849 17.753 25.9861 16.8621 26.8769C15.9713 27.7678 15.4702 28.9757 15.4688 30.2355V37.1726C15.4696 38.0709 15.7248 38.9506 16.2047 39.7099C16.6847 40.4693 17.3698 41.0772 18.1808 41.4635L20.7844 50.9122C21.1165 52.0988 21.9053 53.1055 22.978 53.7119C24.0507 54.3182 25.32 54.4749 26.5079 54.1476C27.6959 53.8202 28.7058 53.0355 29.3165 51.9653C29.9272 50.8951 30.089 49.6265 29.7665 48.4372L27.9717 41.925H29.828L49.2188 49.6805C49.3185 49.7203 49.4248 49.7408 49.5322 49.7408ZM50.5091 29.1252C51.0804 29.1219 51.6467 29.2316 52.1755 29.448C52.7042 29.6644 53.185 29.9831 53.5901 30.386C53.9952 30.7888 54.3167 31.2677 54.5361 31.7952C54.7555 32.3227 54.8684 32.8884 54.8684 33.4597C54.8684 34.031 54.7555 34.5967 54.5361 35.1242C54.3167 35.6517 53.9952 36.1306 53.5901 36.5335C53.185 36.9363 52.7042 37.2551 52.1755 37.4714C51.6467 37.6878 51.0804 37.7975 50.5091 37.7943H50.376V29.1252H50.5091ZM29.1482 40.2369H27.7083V27.171H29.1475L29.1482 40.2369ZM17.1562 37.1726V30.2355C17.1571 29.423 17.4803 28.6441 18.0548 28.0696C18.6293 27.4951 19.4083 27.1719 20.2208 27.171H26.0208V40.2369H20.2208C19.4083 40.2361 18.6293 39.9129 18.0548 39.3385C17.4803 38.764 17.1571 37.985 17.1562 37.1726ZM26.0654 52.5385C25.6893 52.6422 25.2964 52.6708 24.9092 52.6227C24.522 52.5746 24.1481 52.4506 23.8088 52.258C23.4695 52.0653 23.1715 51.8077 22.9318 51.4998C22.692 51.192 22.5153 50.8399 22.4117 50.4637L20.0572 41.9203C20.1116 41.9223 20.1659 41.9246 20.2208 41.9246H26.2219L28.1402 48.8855C28.3485 49.645 28.247 50.4562 27.8581 51.141C27.4691 51.8258 26.8244 52.3284 26.0654 52.5385ZM48.6885 47.6508L30.835 40.5094V26.8985L48.6885 19.7578V47.6508Z" fill="#02A68F"/>
</svg>
