<svg width="74" height="74" viewBox="0 0 74 74" fill="none" xmlns="http://www.w3.org/2000/svg">
<path d="M27.5156 23.5277H29.0002C29.2302 23.5277 29.4508 23.4363 29.6134 23.2737C29.7761 23.1111 29.8674 22.8905 29.8674 22.6605C29.8674 22.4305 29.7761 22.21 29.6134 22.0473C29.4508 21.8847 29.2302 21.7933 29.0002 21.7933H27.5156C27.2856 21.7933 27.0651 21.8847 26.9024 22.0473C26.7398 22.21 26.6484 22.4305 26.6484 22.6605C26.6484 22.8905 26.7398 23.1111 26.9024 23.2737C27.0651 23.4363 27.2856 23.5277 27.5156 23.5277Z" fill="#02A68F"/>
<path d="M54.8704 41.2752C54.8695 40.5026 54.5622 39.762 54.0159 39.2157C53.4695 38.6694 52.7288 38.3621 51.9562 38.3612H42.7155C42.5129 38.3614 42.3174 38.2867 42.1666 38.1515C42.0158 38.0162 41.9203 37.83 41.8986 37.6286C41.7725 36.4621 41.921 35.2824 42.3322 34.1835C42.7976 32.9462 43.0357 31.635 43.0349 30.3131V29.5634C43.0336 28.3558 42.5533 27.1981 41.6994 26.3442C40.8455 25.4903 39.6877 25.0099 38.4801 25.0085C38.2729 25.0085 38.0725 25.0827 37.9153 25.2177C37.758 25.3527 37.6543 25.5395 37.6229 25.7443L37.208 28.4524C36.8937 30.4896 36.2266 32.4564 35.2367 34.2645V19.9887C35.2349 18.3423 34.58 16.7638 33.4158 15.5996C32.2517 14.4354 30.6732 13.7806 29.0268 13.7787H7.65524C6.00883 13.7806 4.43038 14.4354 3.26619 15.5996C2.102 16.7638 1.44715 18.3423 1.44531 19.9887V66.7373C1.44703 68.3838 2.10183 69.9624 3.26603 71.1267C4.43022 72.291 6.00874 72.9459 7.65524 72.9478H29.0261C30.6726 72.9461 32.2512 72.2914 33.4155 71.1272C34.5799 69.963 35.2348 68.3844 35.2367 66.7379V55.4821C35.5728 55.6469 35.9011 55.8283 36.2217 56.0265C38.3319 57.3358 40.6831 57.4442 43.1069 57.4442H50.8172C51.3714 57.4446 51.9152 57.2937 52.3899 57.0076C52.8646 56.7216 53.2522 56.3114 53.5108 55.8212C53.7694 55.3311 53.8893 54.7796 53.8575 54.2263C53.8257 53.673 53.6434 53.1389 53.3303 52.6817C53.7437 52.4466 54.0962 52.1181 54.3598 51.7223C54.6235 51.3266 54.7907 50.8746 54.8483 50.4026C54.9059 49.9306 54.8522 49.4517 54.6915 49.0041C54.5308 48.5566 54.2676 48.1529 53.9229 47.8254C54.2195 47.5379 54.4561 47.1942 54.6187 46.8145C54.7814 46.4347 54.8669 46.0264 54.8703 45.6132C54.8738 45.2001 54.795 44.7904 54.6386 44.408C54.4823 44.0256 54.2515 43.6781 53.9596 43.3857C54.2471 43.1144 54.4762 42.7874 54.6328 42.4245C54.7894 42.0616 54.8703 41.6705 54.8704 41.2752ZM29.0261 71.2134H7.65524C6.46865 71.2121 5.33103 70.7402 4.49198 69.9012C3.65294 69.0621 3.18099 67.9245 3.17969 66.7379V63.3309H33.5023V66.7379C33.501 67.9246 33.029 69.0623 32.1898 69.9014C31.3506 70.7405 30.2128 71.2123 29.0261 71.2134ZM33.5023 63.3309H3.17969V23.5277H24.8855C25.1155 23.5277 25.3361 23.4363 25.4987 23.2737C25.6614 23.111 25.7527 22.8905 25.7527 22.6605C25.7527 22.4305 25.6614 22.2099 25.4987 22.0473C25.3361 21.8847 25.1155 21.7933 24.8855 21.7933H3.17969V19.9887C3.18099 18.8021 3.65294 17.6645 4.49198 16.8254C5.33103 15.9864 6.46865 15.5144 7.65524 15.5131H29.0261C30.2128 15.5142 31.3506 15.9861 32.1898 16.8252C33.029 17.6642 33.501 18.802 33.5023 19.9887V21.7927H31.6974C31.4674 21.7927 31.2469 21.8841 31.0842 22.0467C30.9216 22.2093 30.8302 22.4299 30.8302 22.6599C30.8302 22.8899 30.9216 23.1105 31.0842 23.2731C31.2469 23.4357 31.4674 23.5271 31.6974 23.5271H33.5023V36.7455C32.6595 37.5273 31.5529 37.9627 30.4033 37.9649H29.3108V35.9602C29.3108 35.7303 29.2194 35.5097 29.0568 35.3471C28.8942 35.1844 28.6736 35.0931 28.4436 35.0931H20.6112C20.3812 35.0931 20.1606 35.1844 19.998 35.3471C19.8353 35.5097 19.744 35.7303 19.744 35.9602V55.9998C19.744 56.2298 19.8353 56.4504 19.998 56.613C20.1606 56.7756 20.3812 56.867 20.6112 56.867H28.4429C28.6729 56.867 28.8934 56.7756 29.0561 56.613C29.2187 56.4504 29.3101 56.2298 29.3101 55.9998V54.3248H30.2495C31.351 54.3251 32.4465 54.4862 33.5015 54.8029L33.5023 63.3309ZM27.5766 36.8274V55.1326H21.4784V36.8274H27.5766ZM51.816 48.7112C51.9907 48.7094 52.1639 48.7422 52.3257 48.8078C52.4876 48.8733 52.6348 48.9703 52.759 49.0932C52.8831 49.216 52.9816 49.3622 53.0489 49.5234C53.1161 49.6845 53.1507 49.8574 53.1507 50.032C53.1507 50.2067 53.1161 50.3795 53.0489 50.5407C52.9816 50.7019 52.8831 50.8481 52.759 50.9709C52.6348 51.0937 52.4876 51.1907 52.3257 51.2563C52.1639 51.3218 51.9907 51.3547 51.816 51.3528H47.3724C47.1424 51.3528 46.9219 51.4442 46.7592 51.6068C46.5966 51.7695 46.5052 51.99 46.5052 52.22C46.5052 52.45 46.5966 52.6706 46.7592 52.8332C46.9219 52.9958 47.1424 53.0872 47.3724 53.0872H50.8172C51.165 53.0872 51.4985 53.2254 51.7444 53.4713C51.9904 53.7172 52.1285 54.0507 52.1285 54.3985C52.1285 54.7463 51.9904 55.0799 51.7444 55.3258C51.4985 55.5717 51.165 55.7099 50.8172 55.7099H43.1062C40.9427 55.7099 38.8581 55.6214 37.1354 54.5526C35.0682 53.2696 32.6834 52.5899 30.2504 52.5904H29.3109V39.6999H30.4034C31.3967 39.6982 32.3756 39.4622 33.2604 39.0109C34.1452 38.5596 34.911 37.9057 35.4954 37.1026C37.282 34.6154 38.4565 31.7417 38.9237 28.7152L39.2112 26.8386C39.8106 27.0001 40.3401 27.3545 40.718 27.847C41.0958 28.3395 41.301 28.9427 41.3018 29.5634V30.3131C41.3024 31.4268 41.1017 32.5314 40.7093 33.5736C40.2027 34.9269 40.0195 36.3799 40.1745 37.8166C40.2421 38.4431 40.539 39.0225 41.0081 39.4433C41.4773 39.864 42.0855 40.0964 42.7156 40.0956H51.9564C52.2692 40.0956 52.5693 40.2199 52.7905 40.4411C53.0118 40.6623 53.136 40.9624 53.136 41.2752C53.136 41.5881 53.0118 41.8882 52.7905 42.1094C52.5693 42.3306 52.2692 42.4549 51.9564 42.4549H50.0718C50.0303 42.4552 49.9889 42.4586 49.9478 42.4649H48.7338C48.5038 42.4649 48.2832 42.5562 48.1206 42.7189C47.9579 42.8815 47.8666 43.1021 47.8666 43.3321C47.8666 43.5621 47.9579 43.7826 48.1206 43.9453C48.2832 44.1079 48.5038 44.1993 48.7338 44.1993H51.7471C52.1154 44.1993 52.4687 44.3456 52.7291 44.606C52.9896 44.8665 53.1359 45.2197 53.1359 45.5881C53.1359 45.9564 52.9896 46.3096 52.7291 46.5701C52.4687 46.8305 52.1154 46.9769 51.7471 46.9769H48.7338C48.5038 46.9769 48.2832 47.0682 48.1206 47.2308C47.9579 47.3935 47.8666 47.6141 47.8666 47.844C47.8666 48.074 47.9579 48.2946 48.1206 48.4572C48.2832 48.6199 48.5038 48.7112 48.7338 48.7112H51.8152H51.816Z" fill="#02A68F"/>
<path d="M68.2208 1.05219H41.7064C40.5575 1.05352 39.456 1.51054 38.6436 2.32297C37.8313 3.1354 37.3743 4.2369 37.373 5.38581V19.2302C37.3743 20.3791 37.8313 21.4805 38.6436 22.293C39.456 23.1054 40.5575 23.5623 41.7064 23.5637H43.1169C43.1926 23.5613 43.2668 23.5847 43.3274 23.6302C43.388 23.6756 43.4314 23.7403 43.4503 23.8137C44.2364 28.2631 47.1538 29.6315 47.814 29.887C47.9793 29.9748 48.1683 30.0075 48.3535 29.9804C48.5347 29.9509 48.703 29.868 48.8369 29.7424C48.9708 29.6168 49.0641 29.4541 49.1051 29.2751C49.184 28.9267 49.234 28.5723 49.2547 28.2157C49.4745 25.8618 49.9356 23.5637 52.8776 23.5637H68.2208C69.3697 23.5623 70.4712 23.1054 71.2836 22.293C72.096 21.4806 72.553 20.3791 72.5543 19.2302V5.38581C72.553 4.23687 72.096 3.13535 71.2836 2.32292C70.4712 1.51049 69.3697 1.05349 68.2208 1.05219ZM70.8199 19.2302C70.8192 19.9193 70.5452 20.58 70.0579 21.0673C69.5706 21.5546 68.9099 21.8286 68.2208 21.8293H52.8782C48.3388 21.8293 47.7517 25.7829 47.5556 27.7695C46.7288 27.1616 45.5824 25.9127 45.1581 23.5121C45.0704 23.0361 44.8176 22.6065 44.4442 22.2986C44.0708 21.9908 43.6008 21.8246 43.1169 21.8293H41.7064C41.0173 21.8286 40.3566 21.5545 39.8693 21.0672C39.3821 20.58 39.1081 19.9193 39.1074 19.2302V5.38581C39.108 4.69668 39.382 4.03595 39.8693 3.54864C40.3566 3.06133 41.0173 2.78725 41.7064 2.78656H68.2208C68.9099 2.78721 69.5707 3.06127 70.058 3.54859C70.5452 4.03591 70.8193 4.69666 70.8199 5.38581V19.2302Z" fill="#02A68F"/>
</svg>
