<svg width="16" height="17" viewBox="0 0 16 17" fill="none" xmlns="http://www.w3.org/2000/svg">
<path d="M8.75073 8.46658L15.4655 1.60802C15.7247 1.35237 15.7319 0.930551 15.4816 0.66584C15.2313 0.401128 14.8183 0.393788 14.5592 0.649441C14.5537 0.65479 14.5484 0.660256 14.5431 0.66584L7.82826 7.5244L1.11345 0.6658C0.854291 0.410147 0.441313 0.417487 0.191018 0.682199C-0.0531609 0.940429 -0.0531609 1.34979 0.191018 1.60802L6.90582 8.46658L0.191018 15.3251C-0.0636726 15.5853 -0.0636726 16.0071 0.191018 16.2673C0.445747 16.5274 0.858725 16.5274 1.11345 16.2673L7.82826 9.40877L14.5431 16.2673C14.8022 16.523 15.2152 16.5156 15.4655 16.2509C15.7096 15.9927 15.7096 15.5833 15.4655 15.3251L8.75073 8.46658Z" fill="black"/>
</svg>
