<svg width="23" height="23" viewBox="0 0 23 23" fill="none" xmlns="http://www.w3.org/2000/svg">
<g clip-path="url(#clip0)">
<path d="M5.09729 13.8992L4.29669 16.888L1.37052 16.9499C0.496027 15.3279 0 13.4721 0 11.5C0 9.59307 0.463773 7.79475 1.28584 6.2113H1.28647L3.89158 6.68891L5.03278 9.27839C4.79393 9.97472 4.66374 10.7222 4.66374 11.5C4.66383 12.3442 4.81675 13.153 5.09729 13.8992Z" fill="white"/>
<path d="M22.7982 9.35168C22.9303 10.0473 22.9991 10.7658 22.9991 11.5C22.9991 12.3234 22.9126 13.1265 22.7477 13.9011C22.1878 16.5373 20.725 18.8392 18.6987 20.4681L18.698 20.4675L15.4168 20.3001L14.9524 17.4011C16.297 16.6125 17.3478 15.3784 17.9013 13.9011H11.752V9.35168H17.991H22.7982Z" fill="white"/>
<path d="M18.6994 20.4675L18.7001 20.4682C16.7293 22.0523 14.2258 23.0001 11.5006 23.0001C7.12109 23.0001 3.31347 20.5522 1.37109 16.9499L5.09786 13.8993C6.06902 16.4912 8.56933 18.3363 11.5006 18.3363C12.7605 18.3363 13.9409 17.9957 14.9537 17.4011L18.6994 20.4675Z" fill="white"/>
<path d="M18.8397 2.64752L15.1142 5.69753C14.066 5.0423 12.8268 4.66379 11.4993 4.66379C8.50172 4.66379 5.95465 6.5935 5.03214 9.27834L1.28579 6.21126H1.28516C3.1991 2.52115 7.05474 0 11.4993 0C14.2896 0 16.8481 0.993941 18.8397 2.64752Z" fill="white"/>
</g>
<defs>
<clipPath id="clip0">
<rect width="23" height="23" fill="white"/>
</clipPath>
</defs>
</svg>
